<svg width="18.000000" height="14.139893" viewBox="0 0 18 14.1399" fill="none" xmlns="http://www.w3.org/2000/svg" xmlns:xlink="http://www.w3.org/1999/xlink">
	<desc>
			Created with Pixso.
	</desc>
	<defs/>
	<path id="Path 90" d="M17.99 12.53C17.99 13.4099 17.27 14.1399 16.38 14.1399L1.60999 14.1399C0.719971 14.1399 0 13.4099 0 12.53L0 1.61011C0 0.719971 0.719971 0 1.60999 0L16.39 0C17.27 0 18 0.719971 18 1.61011L17.99 12.53ZM16.39 1.29004L1.60999 1.29004C1.44 1.29004 1.28998 1.43994 1.28998 1.61011C1.28998 2.75 1.85999 3.75 2.77002 4.45996C4.12 5.51001 5.46002 6.58008 6.79999 7.63989C7.32001 8.07007 8.28003 9 8.98999 9C9.69 9 10.68 8.08008 11.21 7.63989C12.55 6.58008 13.89 5.51001 15.24 4.45996C15.89 3.94995 16.72 2.83008 16.72 1.97998C16.71 1.72998 16.77 1.29004 16.39 1.29004ZM16.71 4.82007C16.5 5.06006 16.27 5.28003 16.02 5.47998C14.58 6.58008 13.14 7.70996 11.74 8.87012C10.99 9.5 10.05 10.28 9.01001 10.28C7.96997 10.28 7.01001 9.51001 6.26001 8.87012C4.85999 7.69995 3.41998 6.58008 1.97998 5.47998C1.72998 5.28003 1.5 5.06006 1.28998 4.82007L1.28998 12.53C1.28998 12.7 1.44 12.8501 1.60999 12.8501L16.39 12.8501C16.56 12.8501 16.71 12.7 16.71 12.53L16.71 4.82007Z" fill-rule="nonzero" fill="#FFFFFF"/>
</svg>
