<svg xmlns="http://www.w3.org/2000/svg" xmlns:xlink="http://www.w3.org/1999/xlink" width="203" height="29.409" viewBox="0 0 203 29.409">
  <defs>
    <clipPath id="clip-path">
      <rect width="203" height="29.409" fill="none"/>
    </clipPath>
  </defs>
  <g id="logo" clip-path="url(#clip-path)">
    <g id="Group_11" data-name="Group 11" transform="translate(0 -0.741)">
      <path id="Path_33" data-name="Path 33" d="M17.19,28.26a49.992,49.992,0,0,1,.19-7.87c.16-.6,1.07-3.63,3.22-4.42a4.132,4.132,0,0,0,1.2-.6,7.511,7.511,0,0,0,1.28-1.64c.14-.21.26-.41.37-.58.45-.72.75-1.2,1.27-1.35.01,0,1.48-.41,2.17.06a.839.839,0,0,1,.37.63c.03.38.03,2.46-.67,3.28-.19.23-.38.43-.54.61-.14.16-.32.35-.37.43a2.487,2.487,0,0,1-.59.68l-.34,1.34-1.07-.27.42-1.66.12-.11a4.668,4.668,0,0,0,.46-.47,3.509,3.509,0,0,1,.55-.69c.16-.17.34-.37.52-.59a5.16,5.16,0,0,0,.42-2.31,3.278,3.278,0,0,0-1.13.11,3.54,3.54,0,0,0-.65.88c-.11.18-.24.38-.38.6a7.889,7.889,0,0,1-1.56,1.94,5.231,5.231,0,0,1-1.46.74c-1.27.47-2.16,2.27-2.53,3.67a58.373,58.373,0,0,0-.15,7.56Zm7.49-11.95Z" fill="#75b482"/>
    </g>
    <g id="Group_12" data-name="Group 12" transform="translate(0 -0.741)">
      <path id="Path_34" data-name="Path 34" d="M21.94,28.29a20.246,20.246,0,0,1-.02-3.73l.02-.08a2.962,2.962,0,0,1,2.32-2.3,3.4,3.4,0,0,0,.95-.55c1.4-2.08,3.61-5.4,3.92-5.95.03-.43.01-2.45-.01-3.8-.02-1.54-.02-2.45-.01-2.72a.815.815,0,0,0-.5-.43.262.262,0,0,0-.27.08c-.08.4-.17.77-.25,1.1a10.41,10.41,0,0,0-.21,1.03c-.02.21-.09.74-.17,1.34-.08.57-.2,1.43-.2,1.57,0,.19,0,.42-1.9,3.07l-.9-.64c.72-1,1.54-2.21,1.69-2.53.02-.23.08-.71.2-1.62.07-.54.15-1.1.17-1.29a9.924,9.924,0,0,1,.24-1.19c.08-.35.18-.76.27-1.2l.03-.13.08-.1a1.42,1.42,0,0,1,1.69-.49,1.716,1.716,0,0,1,1.13,1.5c-.02.19,0,1.5.01,2.65A30.259,30.259,0,0,1,30.19,16c-.03.1-.11.38-4.12,6.33l-.04.06-.06.05a4.356,4.356,0,0,1-1.42.82,1.9,1.9,0,0,0-1.56,1.53l-.02.09a20.679,20.679,0,0,0,.06,3.35ZM29.12,9.15Z" fill="#75b482"/>
    </g>
    <g id="Group_13" data-name="Group 13" transform="translate(0 -0.741)">
      <path id="Path_35" data-name="Path 35" d="M12.04,28.47l-.1-5.7a15.449,15.449,0,0,0-.2-2.61c-.17-.87-1.74-3.34-3-3.58-.04-.01-.07-.01-.11-.02a1.4,1.4,0,0,1-.89-.45,10.619,10.619,0,0,1-1.48-1.8l-.07-.11c-.28-.42-.44-.67-.69-1.1-.16-.27-.45-.58-.75-.58h0a.47.47,0,0,0-.39.15,1.117,1.117,0,0,0-.15.82c.13.42.45,1.4.54,1.65.11.29.22.51.22.51l-.98.51a5.676,5.676,0,0,1-.28-.63c-.13-.34-.56-1.7-.58-1.76l-.03-.12a2.172,2.172,0,0,1,.42-1.72,1.569,1.569,0,0,1,1.2-.51h.02a2.073,2.073,0,0,1,1.71,1.13c.24.41.39.64.66,1.05l.07.11a9.483,9.483,0,0,0,1.3,1.59c.17.15.19.15.29.17a1.223,1.223,0,0,1,.17.03c1.89.36,3.66,3.35,3.87,4.46a16.779,16.779,0,0,1,.22,2.79l.1,5.7Z" fill="#75b482"/>
    </g>
    <g id="Group_14" data-name="Group 14" transform="translate(0 -0.741)">
      <path id="Path_36" data-name="Path 36" d="M8.36,28.35H7.26c0-1.7-.01-3.62-.04-3.99-.07-.2-.25-.61-.49-.71-.06-.02-.15-.05-.25-.09a7.25,7.25,0,0,1-1.14-.49,4.114,4.114,0,0,1-1.49-1.22C3.82,21.81.83,17.26.22,16.44c-.15-.2-.2-.47-.17-1.62L0,9.05A1.629,1.629,0,0,1,.74,7.77a1.537,1.537,0,0,1,1.45-.21A2.5,2.5,0,0,1,3.36,9.71c.04.43.14.98.24,1.57a19.005,19.005,0,0,1,.31,2.31v.19a2.735,2.735,0,0,0,.06.67c.41.51,1.65,1.97,2.17,2.55a3.59,3.59,0,0,1,.55,1.55l.02.1-1.06.31a1.7,1.7,0,0,1-.04-.19,3.367,3.367,0,0,0-.3-1.05c-.45-.51-1.75-2.03-2.22-2.62a2.166,2.166,0,0,1-.28-1.31v-.16a19.887,19.887,0,0,0-.29-2.17c-.1-.61-.2-1.18-.25-1.65-.08-.7-.25-1.11-.54-1.24a.543.543,0,0,0-.34.09.663.663,0,0,0-.29.39l.04,5.79a8.128,8.128,0,0,0,.01,1.02c.73,1.01,3.49,5.21,3.61,5.39a3.076,3.076,0,0,0,1.07.85l.05.03a6.956,6.956,0,0,0,.95.4c.11.04.21.08.28.1a2.2,2.2,0,0,1,1.14,1.41C8.31,24.15,8.36,24.28,8.36,28.35ZM1.1,15.78Z" fill="#75b482"/>
    </g>
    <g id="Group_17" data-name="Group 17" transform="translate(0 -0.741)">
      <g id="Group_15" data-name="Group 15">
        <path id="Path_37" data-name="Path 37" d="M12.59,28.96a.546.546,0,0,1-.55-.54l-.1-5.7a15.449,15.449,0,0,0-.2-2.61c-.17-.87-1.74-3.34-3-3.58-.04-.01-.08-.01-.11-.02a1.4,1.4,0,0,1-.89-.45,10.619,10.619,0,0,1-1.48-1.8l-.08-.12c-.27-.42-.44-.67-.69-1.1-.16-.27-.45-.58-.75-.58h0a.47.47,0,0,0-.39.15,1.117,1.117,0,0,0-.15.82c.13.42.45,1.4.54,1.65a4.7,4.7,0,0,0,.22.51.55.55,0,0,1-.98.5,5.676,5.676,0,0,1-.28-.63c-.13-.34-.56-1.7-.58-1.76l-.02-.11a2.172,2.172,0,0,1,.42-1.72,1.569,1.569,0,0,1,1.2-.51,2.062,2.062,0,0,1,1.72,1.13c.24.4.39.63.66,1.05l.08.12a9.483,9.483,0,0,0,1.3,1.59c.17.15.19.15.29.17a1.676,1.676,0,0,1,.18.03c1.89.36,3.66,3.35,3.87,4.46a16.779,16.779,0,0,1,.22,2.79l.1,5.7a.549.549,0,0,1-.54.56Z" fill="#75b482"/>
      </g>
      <g id="Group_16" data-name="Group 16">
        <path id="Path_38" data-name="Path 38" d="M7.81,28.84a.555.555,0,0,1-.55-.55c0-1.7-.01-3.62-.04-3.99-.07-.2-.25-.61-.49-.71q-.09-.03-.24-.09a7.791,7.791,0,0,1-1.15-.49,4.114,4.114,0,0,1-1.49-1.22C3.82,21.74.83,17.2.22,16.38c-.15-.2-.2-.47-.17-1.62L0,8.99A1.629,1.629,0,0,1,.74,7.71,1.534,1.534,0,0,1,2.19,7.5,2.5,2.5,0,0,1,3.36,9.65c.04.43.14.98.24,1.57a19.005,19.005,0,0,1,.31,2.31v.19a2.735,2.735,0,0,0,.06.67c.41.51,1.65,1.97,2.17,2.55a3.59,3.59,0,0,1,.55,1.55l.02.1a.559.559,0,0,1-.39.67.545.545,0,0,1-.67-.36,1.7,1.7,0,0,1-.04-.19,3.367,3.367,0,0,0-.3-1.05c-.5-.57-1.76-2.04-2.22-2.62a2.166,2.166,0,0,1-.28-1.31v-.16a17.531,17.531,0,0,0-.3-2.16c-.1-.61-.2-1.18-.25-1.65-.07-.71-.24-1.12-.53-1.25a.518.518,0,0,0-.33.09.647.647,0,0,0-.3.39l.04,5.79a8.128,8.128,0,0,0,.01,1.02c.73,1.01,3.49,5.21,3.61,5.39a3.371,3.371,0,0,0,1.07.85l.05.03a6.6,6.6,0,0,0,.96.4c.11.04.21.08.28.1a2.2,2.2,0,0,1,1.14,1.41c.04.11.09.24.09,4.31A.54.54,0,0,1,7.81,28.84ZM1.1,15.72Z" fill="#75b482"/>
      </g>
    </g>
    <path id="Path_39" data-name="Path 39" d="M15.1,15.09c-.54,0-6.01-6.01-6.01-6.01C3.41,3.4,9.42-2.61,15.1,3.07c5.75-5.75,11.77.26,6.01,6.01C21.11,9.08,15.64,15.09,15.1,15.09Z" transform="translate(0 -0.741)" fill="none" stroke="#1f7b76" stroke-linecap="round" stroke-miterlimit="10" stroke-width="1.472"/>
    <g id="Group_20" data-name="Group 20" transform="translate(0 -0.741)">
      <g id="Group_18" data-name="Group 18">
        <path id="Path_40" data-name="Path 40" d="M17.7,28.96h-.01a.555.555,0,0,1-.54-.56l.1-5.7a16.779,16.779,0,0,1,.22-2.79c.21-1.11,1.99-4.1,3.87-4.46.07-.01.12-.02.18-.03.1-.01.12-.02.29-.17a9.91,9.91,0,0,0,1.3-1.59l.08-.12c.27-.41.42-.64.66-1.04a2.047,2.047,0,0,1,1.71-1.13h.02a1.6,1.6,0,0,1,1.2.51,2.135,2.135,0,0,1,.42,1.72l-.02.11c-.02.06-.45,1.41-.58,1.76a5.675,5.675,0,0,1-.28.63.55.55,0,0,1-.98-.5s.11-.22.22-.51c.09-.25.41-1.22.54-1.65a1.168,1.168,0,0,0-.15-.82.559.559,0,0,0-.39-.15h0c-.3,0-.59.31-.75.58-.25.43-.42.68-.69,1.09l-.08.12a10.619,10.619,0,0,1-1.48,1.8,1.451,1.451,0,0,1-.89.45.516.516,0,0,0-.11.02c-1.26.24-2.83,2.71-3,3.58a15.449,15.449,0,0,0-.2,2.61l-.1,5.7A.562.562,0,0,1,17.7,28.96Z" fill="#75b482"/>
      </g>
      <g id="Group_19" data-name="Group 19">
        <path id="Path_41" data-name="Path 41" d="M22.48,28.84a.555.555,0,0,1-.55-.55c0-4.07.05-4.2.09-4.31a2.264,2.264,0,0,1,1.14-1.41c.07-.03.17-.06.28-.1a6.6,6.6,0,0,0,.96-.4l.05-.03a3.076,3.076,0,0,0,1.07-.85c.12-.18,2.88-4.38,3.61-5.39a7.8,7.8,0,0,0,.01-1l.04-5.82c0-.1-.12-.25-.29-.38a.47.47,0,0,0-.35-.08c-.27.12-.45.53-.52,1.25-.05.47-.14,1.04-.25,1.64a19.27,19.27,0,0,0-.29,2.17v.16a2.24,2.24,0,0,1-.28,1.31c-.45.57-1.71,2.04-2.22,2.62a3.591,3.591,0,0,0-.3,1.04c-.02.1-.04.16-.04.19a.55.55,0,1,1-1.05-.33l.01-.08a3.59,3.59,0,0,1,.55-1.55c.51-.58,1.76-2.04,2.18-2.58a3.084,3.084,0,0,0,.04-.64v-.19a18.751,18.751,0,0,1,.31-2.31c.1-.58.2-1.14.24-1.57A2.518,2.518,0,0,1,28.1,7.5a1.537,1.537,0,0,1,1.45.21,1.612,1.612,0,0,1,.74,1.27l-.04,5.8c.03,1.11-.02,1.39-.17,1.6-.61.82-3.6,5.37-3.63,5.41a4.114,4.114,0,0,1-1.49,1.22,6.976,6.976,0,0,1-1.15.49q-.15.06-.24.09c-.25.1-.42.51-.49.71-.03.36-.04,2.28-.04,3.99A.557.557,0,0,1,22.48,28.84Zm6.71-13.12Z" fill="#75b482"/>
      </g>
    </g>
    <path id="Path_42" data-name="Path 42" d="M44.53,1.86h5.6L61.96,29.67H55.61l-2.52-6.19H41.41l-2.52,6.19H32.7Zm6.39,16.26L47.25,9.17l-3.67,8.95Z" transform="translate(0 -0.741)" fill="#1f7b76"/>
    <path id="Path_43" data-name="Path 43" d="M64.07,22.06V8.37h6V20.16c0,2.84,1.34,4.3,3.63,4.3s3.75-1.46,3.75-4.3V8.37h6V29.51h-6v-3a7.47,7.47,0,0,1-6.19,3.39C66.71,29.91,64.07,26.91,64.07,22.06Z" transform="translate(0 -0.741)" fill="#1f7b76"/>
    <path id="Path_44" data-name="Path 44" d="M87,26.87l2.56-3.94a11.917,11.917,0,0,0,6.67,2.52c1.74,0,2.52-.63,2.52-1.58V23.8c0-1.3-2.05-1.74-4.38-2.45-2.96-.87-6.31-2.25-6.31-6.35v-.08c0-4.3,3.47-6.71,7.73-6.71a14.638,14.638,0,0,1,7.89,2.45l-2.29,4.14a12.546,12.546,0,0,0-5.72-1.97c-1.46,0-2.21.63-2.21,1.46v.08c0,1.18,2.01,1.74,4.3,2.52,2.96.99,6.39,2.41,6.39,6.27v.08c0,4.69-3.51,6.82-8.09,6.82A14.718,14.718,0,0,1,87,26.87Z" transform="translate(0 -0.741)" fill="#1f7b76"/>
    <path id="Path_45" data-name="Path 45" d="M107.03,19.14v-.08c0-7.06,4.62-10.93,9.63-10.93a8.124,8.124,0,0,1,6.59,3.16V.88h6v28.8h-6V26.64a7.769,7.769,0,0,1-6.59,3.43C111.72,30.07,107.03,26.2,107.03,19.14Zm16.29,0v-.08c0-3.51-2.33-5.84-5.13-5.84s-5.17,2.29-5.17,5.84v.08c0,3.51,2.37,5.84,5.17,5.84S123.32,22.65,123.32,19.14Z" transform="translate(0 -0.741)" fill="#75b482"/>
    <path id="Path_46" data-name="Path 46" d="M132.78,19.22v-.08A11.1,11.1,0,0,1,144.26,8.13c6.55,0,11.4,4.85,11.4,10.93v.08a11.1,11.1,0,0,1-11.48,11.01C137.63,30.15,132.78,25.3,132.78,19.22Zm16.96,0v-.08a5.618,5.618,0,0,0-5.56-5.84c-3.43,0-5.48,2.64-5.48,5.76v.08a5.618,5.618,0,0,0,5.56,5.84C147.69,24.98,149.74,22.34,149.74,19.22Z" transform="translate(0 -0.741)" fill="#75b482"/>
    <path id="Path_47" data-name="Path 47" d="M159.37,8.53h6v3a7.47,7.47,0,0,1,6.19-3.39c4.54,0,7.18,3,7.18,7.85V29.68h-6V17.88c0-2.84-1.34-4.3-3.63-4.3s-3.75,1.46-3.75,4.3V29.67h-6V8.53Z" transform="translate(0 -0.741)" fill="#75b482"/>
    <path id="Path_48" data-name="Path 48" d="M182.25,19.22v-.08c0-6.04,4.3-11.01,10.45-11.01,7.06,0,10.3,5.48,10.3,11.48,0,.47-.04,1.03-.08,1.58H188.21a4.907,4.907,0,0,0,5.17,4.14,6.935,6.935,0,0,0,5.13-2.17l3.43,3.04a10.553,10.553,0,0,1-8.64,3.94C186.95,30.15,182.25,25.69,182.25,19.22Zm14.92-1.77c-.35-2.68-1.93-4.5-4.46-4.5-2.49,0-4.1,1.78-4.58,4.5Z" transform="translate(0 -0.741)" fill="#75b482"/>
  </g>
</svg>
