<svg xmlns="http://www.w3.org/2000/svg" width="188.141" height="28.227" viewBox="0 0 188.141 28.227">
  <g id="logo-white" transform="translate(0 0.23)">
    <g id="Group_21" data-name="Group 21" transform="translate(15.895 10.837)">
      <path id="Path_49" data-name="Path 49" d="M17.187,27.043a46.332,46.332,0,0,1,.176-7.294c.148-.556.992-3.364,2.984-4.1A3.83,3.83,0,0,0,21.46,15.1a6.961,6.961,0,0,0,1.186-1.52c.13-.195.241-.38.343-.538.417-.667.7-1.112,1.177-1.251.009,0,1.372-.38,2.011.056a.778.778,0,0,1,.343.584c.028.352.028,2.28-.621,3.04-.176.213-.352.4-.5.565-.13.148-.3.324-.343.4a2.305,2.305,0,0,1-.547.63L24.194,18.3l-.992-.25.389-1.538.111-.1a4.326,4.326,0,0,0,.426-.436,3.252,3.252,0,0,1,.51-.639c.148-.158.315-.343.482-.547a4.782,4.782,0,0,0,.389-2.141,3.038,3.038,0,0,0-1.047.1,3.281,3.281,0,0,0-.6.816c-.1.167-.222.352-.352.556a7.312,7.312,0,0,1-1.446,1.8,4.848,4.848,0,0,1-1.353.686c-1.177.436-2,2.1-2.345,3.4a54.1,54.1,0,0,0-.139,7.007Zm6.942-11.075Z" transform="translate(-17.15 -11.634)" fill="#75b482"/>
    </g>
    <g id="Group_22" data-name="Group 22" transform="translate(20.236 7.122)">
      <path id="Path_50" data-name="Path 50" d="M21.932,26.777a18.764,18.764,0,0,1-.019-3.457l.019-.074a2.745,2.745,0,0,1,2.15-2.132,3.148,3.148,0,0,0,.88-.51c1.3-1.928,3.346-5,3.633-5.514.028-.4.009-2.271-.009-3.522-.019-1.427-.019-2.271-.009-2.521a.756.756,0,0,0-.463-.4.243.243,0,0,0-.25.074c-.074.371-.158.714-.232,1.019a9.649,9.649,0,0,0-.195.955c-.019.195-.083.686-.158,1.242-.074.528-.185,1.325-.185,1.455,0,.176,0,.389-1.761,2.845l-.834-.593c.667-.927,1.427-2.048,1.566-2.345.019-.213.074-.658.185-1.5.065-.5.139-1.019.158-1.2a9.2,9.2,0,0,1,.222-1.1c.074-.324.167-.7.25-1.112l.028-.12.074-.093a1.316,1.316,0,0,1,1.566-.454A1.591,1.591,0,0,1,29.6,9.113c-.019.176,0,1.39.009,2.456a28.045,28.045,0,0,1-.028,3.818c-.028.093-.1.352-3.818,5.867l-.037.056-.056.046a4.037,4.037,0,0,1-1.316.76,1.759,1.759,0,0,0-1.446,1.418l-.019.083a19.166,19.166,0,0,0,.056,3.1ZM28.587,9.038Z" transform="translate(-21.834 -7.626)" fill="#75b482"/>
    </g>
    <g id="Group_23" data-name="Group 23" transform="translate(2.854 10.638)">
      <path id="Path_51" data-name="Path 51" d="M11.384,27.222l-.093-5.283a14.318,14.318,0,0,0-.185-2.419c-.158-.806-1.613-3.1-2.78-3.318-.037-.009-.065-.009-.1-.019a1.3,1.3,0,0,1-.825-.417A9.842,9.842,0,0,1,6.027,14.1L5.962,14c-.26-.389-.408-.621-.639-1.019-.148-.25-.417-.538-.7-.538h0a.436.436,0,0,0-.361.139,1.036,1.036,0,0,0-.139.76c.12.389.417,1.3.5,1.529.1.269.2.473.2.473l-.908.473a5.26,5.26,0,0,1-.26-.584c-.12-.315-.519-1.576-.538-1.631L3.1,13.487a2.013,2.013,0,0,1,.389-1.594A1.454,1.454,0,0,1,4.6,11.42h.019A1.921,1.921,0,0,1,6.2,12.467c.222.38.361.593.612.973l.065.1a8.789,8.789,0,0,0,1.2,1.474c.158.139.176.139.269.158a1.134,1.134,0,0,1,.158.028c1.752.334,3.392,3.1,3.587,4.134a15.55,15.55,0,0,1,.2,2.586l.093,5.283Z" transform="translate(-3.079 -11.42)" fill="#75b482"/>
    </g>
    <g id="Group_24" data-name="Group 24" transform="translate(0 6.969)">
      <path id="Path_52" data-name="Path 52" d="M7.748,26.821H6.729c0-1.576-.009-3.355-.037-3.7-.065-.185-.232-.565-.454-.658-.056-.019-.139-.046-.232-.083a6.719,6.719,0,0,1-1.057-.454A3.813,3.813,0,0,1,3.568,20.8C3.54,20.76.769,16.543.2,15.783c-.139-.185-.185-.436-.158-1.5L0,8.934A1.51,1.51,0,0,1,.686,7.747,1.425,1.425,0,0,1,2.03,7.553,2.322,2.322,0,0,1,3.114,9.545c.037.4.13.908.222,1.455a17.614,17.614,0,0,1,.287,2.141v.176a2.535,2.535,0,0,0,.056.621c.38.473,1.529,1.826,2.011,2.363a3.327,3.327,0,0,1,.51,1.437l.019.093-.982.287a1.573,1.573,0,0,1-.037-.176,3.121,3.121,0,0,0-.278-.973C4.5,16.5,3.3,15.088,2.864,14.541a2.008,2.008,0,0,1-.26-1.214v-.148a18.431,18.431,0,0,0-.269-2.011C2.243,10.6,2.15,10.074,2.1,9.638c-.074-.649-.232-1.029-.5-1.149a.5.5,0,0,0-.315.083.615.615,0,0,0-.269.361L1.057,14.3a7.533,7.533,0,0,0,.009.945c.677.936,3.235,4.829,3.346,5a2.851,2.851,0,0,0,.992.788l.046.028a6.447,6.447,0,0,0,.88.371c.1.037.195.074.26.093a2.04,2.04,0,0,1,1.057,1.307C7.7,22.928,7.748,23.049,7.748,26.821ZM1.019,15.171Z" transform="translate(0 -7.461)" fill="#75b482"/>
    </g>
    <g id="Group_27" data-name="Group 27" transform="translate(0 6.913)">
      <g id="Group_25" data-name="Group 25" transform="translate(2.854 3.669)">
        <path id="Path_53" data-name="Path 53" d="M11.894,27.672a.506.506,0,0,1-.51-.5l-.093-5.283a14.318,14.318,0,0,0-.185-2.419c-.158-.806-1.613-3.1-2.78-3.318-.037-.009-.074-.009-.1-.019a1.3,1.3,0,0,1-.825-.417,9.842,9.842,0,0,1-1.372-1.668l-.074-.111c-.25-.389-.408-.621-.639-1.019-.148-.25-.417-.538-.7-.538h0a.436.436,0,0,0-.361.139,1.036,1.036,0,0,0-.139.76c.12.389.417,1.3.5,1.529a4.359,4.359,0,0,0,.2.473.51.51,0,0,1-.908.463,5.26,5.26,0,0,1-.26-.584c-.12-.315-.519-1.576-.538-1.631l-.019-.1a2.013,2.013,0,0,1,.389-1.594A1.454,1.454,0,0,1,4.6,11.36a1.911,1.911,0,0,1,1.594,1.047c.222.371.361.584.612.973l.074.111a8.789,8.789,0,0,0,1.2,1.474c.158.139.176.139.269.158a1.554,1.554,0,0,1,.167.028c1.752.334,3.392,3.1,3.587,4.134a15.551,15.551,0,0,1,.2,2.586l.093,5.283a.508.508,0,0,1-.5.519Z" transform="translate(-3.079 -11.36)" fill="#fff"/>
      </g>
      <g id="Group_26" data-name="Group 26">
        <path id="Path_54" data-name="Path 54" d="M7.238,27.271a.514.514,0,0,1-.51-.51c0-1.576-.009-3.355-.037-3.7-.065-.185-.232-.565-.454-.658q-.083-.028-.222-.083a7.221,7.221,0,0,1-1.066-.454,3.813,3.813,0,0,1-1.381-1.131C3.54,20.69.769,16.483.2,15.723c-.139-.185-.185-.436-.158-1.5L0,8.874A1.51,1.51,0,0,1,.686,7.687,1.421,1.421,0,0,1,2.03,7.493,2.322,2.322,0,0,1,3.114,9.485c.037.4.13.908.222,1.455a17.614,17.614,0,0,1,.287,2.141v.176a2.535,2.535,0,0,0,.056.621c.38.473,1.529,1.826,2.011,2.363a3.327,3.327,0,0,1,.51,1.437l.019.093a.518.518,0,0,1-.361.621.506.506,0,0,1-.621-.334,1.573,1.573,0,0,1-.037-.176,3.121,3.121,0,0,0-.278-.973c-.463-.528-1.631-1.891-2.057-2.428a2.008,2.008,0,0,1-.26-1.214v-.148a16.248,16.248,0,0,0-.278-2c-.093-.565-.185-1.094-.232-1.529C2.03,8.929,1.872,8.549,1.6,8.429a.48.48,0,0,0-.306.083.6.6,0,0,0-.278.361l.037,5.366a7.533,7.533,0,0,0,.009.945c.677.936,3.235,4.829,3.346,5a3.124,3.124,0,0,0,.992.788L5.45,21a6.119,6.119,0,0,0,.89.371c.1.037.195.074.26.093a2.04,2.04,0,0,1,1.057,1.307,24.668,24.668,0,0,1,.083,3.995A.5.5,0,0,1,7.238,27.271ZM1.019,15.111Z" transform="translate(0 -7.401)" fill="#fff"/>
      </g>
    </g>
    <path id="Path_55" data-name="Path 55" d="M14.493,14.04c-.5,0-5.57-5.57-5.57-5.57-5.264-5.264.306-10.834,5.57-5.57,5.329-5.329,10.908.241,5.57,5.57C20.063,8.47,14.993,14.04,14.493,14.04Z" transform="translate(-0.498)" fill="none" stroke="#fff" stroke-linecap="round" stroke-miterlimit="10" stroke-width="1.472"/>
    <g id="Group_30" data-name="Group 30" transform="translate(15.894 6.913)">
      <g id="Group_28" data-name="Group 28" transform="translate(0 3.679)">
        <path id="Path_56" data-name="Path 56" d="M17.66,27.672H17.65a.514.514,0,0,1-.5-.519l.093-5.283a15.551,15.551,0,0,1,.2-2.586c.195-1.029,1.844-3.8,3.587-4.134.065-.009.111-.019.167-.028.093-.009.111-.019.269-.158a9.184,9.184,0,0,0,1.2-1.474l.074-.111c.25-.38.389-.593.612-.964a1.9,1.9,0,0,1,1.585-1.047h.019a1.487,1.487,0,0,1,1.112.473,1.978,1.978,0,0,1,.389,1.594l-.019.1c-.019.056-.417,1.307-.538,1.631a5.26,5.26,0,0,1-.26.584.51.51,0,0,1-.908-.463s.1-.2.2-.473c.083-.232.38-1.131.5-1.529a1.083,1.083,0,0,0-.139-.76.518.518,0,0,0-.361-.139h0c-.278,0-.547.287-.7.538-.232.4-.389.63-.639,1.01l-.074.111a9.842,9.842,0,0,1-1.372,1.668,1.345,1.345,0,0,1-.825.417.478.478,0,0,0-.1.019c-1.168.222-2.623,2.512-2.78,3.318a14.318,14.318,0,0,0-.185,2.419l-.093,5.283A.521.521,0,0,1,17.66,27.672Z" transform="translate(-17.15 -11.37)" fill="#fff"/>
      </g>
      <g id="Group_29" data-name="Group 29" transform="translate(4.43)">
        <path id="Path_57" data-name="Path 57" d="M22.44,27.271a.514.514,0,0,1-.51-.51,24.668,24.668,0,0,1,.083-3.995A2.1,2.1,0,0,1,23.07,21.46c.065-.028.158-.056.26-.093a6.119,6.119,0,0,0,.89-.371l.046-.028a2.851,2.851,0,0,0,.992-.788c.111-.167,2.669-4.059,3.346-5a7.233,7.233,0,0,0,.009-.927l.037-5.394c0-.093-.111-.232-.269-.352a.435.435,0,0,0-.324-.074c-.25.111-.417.491-.482,1.159-.046.436-.13.964-.232,1.52a17.859,17.859,0,0,0-.269,2.011v.148a2.076,2.076,0,0,1-.26,1.214c-.417.528-1.585,1.891-2.057,2.428a3.328,3.328,0,0,0-.278.964c-.019.093-.037.148-.037.176a.51.51,0,1,1-.973-.306l.009-.074a3.327,3.327,0,0,1,.51-1.437c.473-.538,1.631-1.891,2.02-2.391a2.858,2.858,0,0,0,.037-.593v-.176a17.379,17.379,0,0,1,.287-2.141c.093-.538.185-1.057.222-1.455a2.334,2.334,0,0,1,1.094-1.993,1.425,1.425,0,0,1,1.344.195,1.494,1.494,0,0,1,.686,1.177l-.037,5.375c.028,1.029-.019,1.288-.158,1.483-.565.76-3.336,4.977-3.364,5.014a3.813,3.813,0,0,1-1.381,1.131,6.466,6.466,0,0,1-1.066.454q-.139.056-.222.083c-.232.093-.389.473-.454.658-.028.334-.037,2.113-.037,3.7A.516.516,0,0,1,22.44,27.271Zm6.219-12.16Z" transform="translate(-21.93 -7.401)" fill="#fff"/>
      </g>
    </g>
    <path id="Path_58" data-name="Path 58" d="M43.664,1.86h5.19L59.818,27.634H53.933L51.6,21.9H40.772l-2.336,5.737H32.7Zm5.922,15.07-3.4-8.295-3.4,8.295Z" transform="translate(-2.394 -0.082)" fill="#fff"/>
    <path id="Path_59" data-name="Path 59" d="M64.07,21.058V8.37h5.561V19.3c0,2.632,1.242,3.985,3.364,3.985s3.476-1.353,3.476-3.985V8.37h5.561V27.963H76.471v-2.78a6.924,6.924,0,0,1-5.737,3.142C66.517,28.333,64.07,25.553,64.07,21.058Z" transform="translate(-4.69 -0.558)" fill="#fff"/>
    <path id="Path_60" data-name="Path 60" d="M87,25.5l2.373-3.652a11.044,11.044,0,0,0,6.182,2.336c1.613,0,2.336-.584,2.336-1.464v-.065c0-1.2-1.9-1.613-4.059-2.271-2.743-.806-5.848-2.085-5.848-5.885v-.074c0-3.985,3.216-6.219,7.164-6.219a13.567,13.567,0,0,1,7.312,2.271l-2.122,3.837a11.627,11.627,0,0,0-5.3-1.826c-1.353,0-2.048.584-2.048,1.353v.074c0,1.094,1.863,1.613,3.985,2.336,2.743.918,5.922,2.234,5.922,5.811v.074c0,4.347-3.253,6.321-7.5,6.321A13.64,13.64,0,0,1,87,25.5Z" transform="translate(-6.368 -0.547)" fill="#fff"/>
    <path id="Path_61" data-name="Path 61" d="M107.03,17.8v-.074c0-6.543,4.282-10.13,8.925-10.13a7.529,7.529,0,0,1,6.108,2.929V.88h5.561V27.572h-5.561V24.754a7.2,7.2,0,0,1-6.108,3.179C111.377,27.933,107.03,24.347,107.03,17.8Zm15.1,0v-.074c0-3.253-2.159-5.413-4.754-5.413s-4.792,2.122-4.792,5.413V17.8c0,3.253,2.2,5.413,4.792,5.413S122.128,21.056,122.128,17.8Z" transform="translate(-7.834 -0.01)" fill="#fff"/>
    <path id="Path_62" data-name="Path 62" d="M132.78,18.408v-.074a10.291,10.291,0,0,1,10.64-10.2c6.071,0,10.566,4.495,10.566,10.13v.074a10.291,10.291,0,0,1-10.64,10.2C137.275,28.538,132.78,24.043,132.78,18.408Zm15.719,0v-.074a5.206,5.206,0,0,0-5.153-5.413,5.018,5.018,0,0,0-5.079,5.338v.074a5.206,5.206,0,0,0,5.153,5.413A5.018,5.018,0,0,0,148.5,18.408Z" transform="translate(-9.719 -0.541)" fill="#fff"/>
    <path id="Path_63" data-name="Path 63" d="M159.369,8.5h5.561v2.78a6.924,6.924,0,0,1,5.737-3.142c4.208,0,6.654,2.78,6.654,7.275V28.1h-5.561V17.167c0-2.632-1.242-3.985-3.364-3.985s-3.476,1.353-3.476,3.985V28.094H159.36V8.5Z" transform="translate(-11.665 -0.542)" fill="#fff"/>
    <path id="Path_64" data-name="Path 64" d="M182.25,18.408v-.074c0-5.6,3.985-10.2,9.685-10.2,6.543,0,9.546,5.079,9.546,10.64,0,.436-.037.955-.074,1.464H187.774a4.547,4.547,0,0,0,4.792,3.837,6.428,6.428,0,0,0,4.755-2.011l3.179,2.817a9.781,9.781,0,0,1-8.008,3.652C186.606,28.538,182.25,24.4,182.25,18.408Zm13.828-1.64c-.324-2.484-1.789-4.171-4.134-4.171-2.308,0-3.8,1.65-4.245,4.171Z" transform="translate(-13.34 -0.541)" fill="#fff"/>
  </g>
</svg>
