<?xml version="1.0" encoding="UTF-8"?>
<svg xmlns="http://www.w3.org/2000/svg" xmlns:xlink="http://www.w3.org/1999/xlink" width="203.000000" height="30.145447" viewBox="0 0 203 30.1454" fill="none">
  <desc>
			Created with Pixso.
	</desc>
  <defs></defs>
  <path id="Path 33" d="M17.1899 28.2554C17.1299 24.9454 17.1001 21.4254 17.3799 20.3854C17.54 19.7854 18.4502 16.7554 20.6001 15.9654C21.3599 15.6854 21.5601 15.5354 21.7998 15.3654C21.8599 15.3154 22.2202 15.0254 23.0801 13.7254C23.2202 13.5154 23.3398 13.3154 23.4502 13.1454C23.8999 12.4254 24.2002 11.9454 24.7202 11.7954C24.73 11.7954 26.2002 11.3854 26.8901 11.8554C27.1099 12.0054 27.2402 12.2354 27.2598 12.4854C27.29 12.8654 27.29 14.9454 26.5898 15.7654C26.3999 15.9954 26.21 16.1954 26.0498 16.3754C25.9102 16.5354 25.73 16.7254 25.6802 16.8054C25.6401 16.9054 25.52 17.0754 25.0898 17.4854L24.75 18.8254L23.6802 18.5554L24.1001 16.8954L24.2202 16.7854C24.4102 16.6054 24.6201 16.4054 24.6802 16.3154C24.75 16.1654 24.8901 16.0054 25.23 15.6254C25.3901 15.4554 25.5698 15.2554 25.75 15.0354C26.04 14.6954 26.1802 13.4154 26.1699 12.7254C25.9199 12.6854 25.3701 12.7354 25.04 12.8354C24.9199 12.8754 24.6201 13.3454 24.3901 13.7154C24.2798 13.8954 24.1499 14.0954 24.0098 14.3154C23.3398 15.3454 22.8198 15.9954 22.4502 16.2554C22.1201 16.4954 21.8198 16.6854 20.9902 16.9954C19.7202 17.4654 18.8301 19.2654 18.46 20.6654C18.1802 21.6954 18.2798 26.4354 18.3101 28.2254L17.1899 28.2554Z" fill-rule="nonzero" fill="#75B482"></path>
  <path id="Path 34" d="M21.9399 28.2854C21.8901 27.5654 21.7402 25.1754 21.9199 24.5554C22.0903 23.9354 22.4399 22.6954 24.2603 22.1754C24.6001 22.0754 25.02 21.7754 25.21 21.6254C26.6104 19.5454 28.8203 16.2254 29.1304 15.6754C29.1602 15.2454 29.1401 13.2254 29.1201 11.8754C29.1001 10.3354 29.1001 9.42544 29.1104 9.15544C29.0703 9.04544 28.8604 8.77544 28.6104 8.72543C28.5303 8.70544 28.4502 8.70544 28.3403 8.80544C28.2603 9.20544 28.1699 9.57544 28.0903 9.90544C27.9902 10.3454 27.9004 10.7154 27.8804 10.9354C27.8604 11.1454 27.79 11.6754 27.71 12.2754C27.6304 12.8454 27.5103 13.7054 27.5103 13.8454C27.5103 14.0354 27.5103 14.2654 25.6104 16.9154L24.71 16.2754C25.4302 15.2754 26.25 14.0654 26.4004 13.7454C26.4199 13.5154 26.48 13.0354 26.6001 12.1254C26.6699 11.5854 26.75 11.0254 26.77 10.8354C26.8003 10.5354 26.8901 10.1454 27.0103 9.64544C27.0903 9.29544 27.1899 8.88544 27.2803 8.44543L27.3101 8.31544L27.3901 8.21544C27.8203 7.66544 28.4502 7.48544 29.0801 7.72544C29.7402 7.98544 30.2603 8.67544 30.21 9.22544C30.1899 9.41544 30.21 10.7254 30.2202 11.8754C30.2603 15.2754 30.25 15.8054 30.1899 15.9954C30.1602 16.0954 30.0801 16.3754 26.0703 22.3254L25.9702 22.4354C25.9004 22.4954 25.23 23.0654 24.5503 23.2554C23.3301 23.6054 23.1504 24.2354 22.9902 24.7854C22.9004 25.0854 22.9302 26.8554 23.0303 28.2254L21.9399 28.2854Z" fill-rule="nonzero" fill="#75B482"></path>
  <path id="Path 35" d="M12.04 28.4654L11.9399 22.7654C11.9199 21.8254 11.8999 20.9854 11.7402 20.1554C11.5703 19.2854 10 16.8154 8.74023 16.5754C8.7002 16.5654 8.66992 16.5654 8.63037 16.5554C8.37012 16.5254 8.13037 16.4654 7.74023 16.1054C7.30029 15.7054 6.70996 14.9854 6.26025 14.3054L6.18994 14.1954C5.91016 13.7754 5.75 13.5254 5.5 13.0954C5.34033 12.8254 5.05029 12.5154 4.75 12.5154C4.57031 12.5154 4.43994 12.5654 4.36035 12.6654C4.22998 12.8154 4.16992 13.1054 4.20996 13.4854C4.34033 13.9054 4.66016 14.8854 4.75 15.1354C4.86035 15.4254 4.97021 15.6454 4.97021 15.6454L3.99023 16.1554C3.97998 16.1454 3.8501 15.8854 3.70996 15.5254C3.58008 15.1854 3.1499 13.8254 3.13037 13.7654L3.1001 13.6454C3.02002 12.9054 3.16992 12.3254 3.52002 11.9254C3.81006 11.5954 4.24023 11.4154 4.72021 11.4154C5.37012 11.4154 6.03027 11.8354 6.4502 12.5454C6.68994 12.9554 6.84033 13.1854 7.11035 13.5954L7.18018 13.7054C7.58008 14.3054 8.11035 14.9654 8.47998 15.2954C8.6499 15.4454 8.66992 15.4454 8.77002 15.4654C8.82031 15.4754 8.88037 15.4754 8.93994 15.4954C10.8301 15.8554 12.6001 18.8454 12.8101 19.9554C12.98 20.8654 13.0103 21.7554 13.0303 22.7454L13.1304 28.4454L12.04 28.4654Z" fill-rule="nonzero" fill="#75B482"></path>
  <path id="Path 36" d="M8.35986 28.3454L7.25977 28.3454C7.25977 26.6454 7.25 24.7254 7.22021 24.3554C7.1499 24.1554 6.97021 23.7454 6.72998 23.6454C6.66992 23.6254 6.58008 23.5954 6.47998 23.5554C6.12988 23.4254 5.6499 23.2554 5.33984 23.0654C5.1499 22.9754 4.29004 22.5154 3.8501 21.8454C3.81982 21.8054 0.830078 17.2554 0.220215 16.4354C0.0698242 16.2354 0.0200195 15.9654 0.0498047 14.8154L0 9.04544C0 8.57544 0.259766 8.12543 0.740234 7.76544C1.16016 7.45544 1.77002 7.36544 2.18994 7.55544C3.2002 8.01544 3.31982 9.28544 3.35986 9.70544C3.3999 10.1354 3.5 10.6854 3.6001 11.2754C3.74023 12.0954 3.89014 12.9454 3.91016 13.5854C3.91016 13.6354 3.91016 13.7054 3.91016 13.7754C3.91016 13.9454 3.91992 14.3354 3.97021 14.4454C4.37988 14.9554 5.62012 16.4154 6.14014 16.9954C6.3999 17.2854 6.54004 17.8254 6.68994 18.5454L6.70996 18.6454L5.6499 18.9554C5.64014 18.9354 5.62988 18.8654 5.60986 18.7654C5.4502 17.9754 5.3501 17.7654 5.31006 17.7154C4.85986 17.2054 3.56006 15.6854 3.08984 15.0954C2.83984 14.7854 2.81982 14.3154 2.81006 13.7854L2.81006 13.6254C2.79004 13.0554 2.6499 12.2454 2.52002 11.4554C2.41992 10.8454 2.31982 10.2754 2.27002 9.80544C2.18994 9.10544 2.02002 8.69543 1.72998 8.56544C1.68994 8.55544 1.52002 8.56544 1.39014 8.65544C1.22021 8.78544 1.1001 8.94543 1.1001 9.04544L1.14014 14.8354C1.12012 15.4954 1.14014 15.7554 1.1499 15.8554C1.87988 16.8654 4.64014 21.0654 4.75977 21.2454C5.00977 21.6354 5.62012 21.9954 5.83008 22.0954C6.04004 22.2254 6.56006 22.4254 6.83008 22.5254C6.93994 22.5654 7.04004 22.6054 7.10986 22.6254C7.77002 22.8854 8.08008 23.5554 8.25 24.0354C8.31006 24.1454 8.35986 24.2754 8.35986 28.3454Z" fill-rule="nonzero" fill="#75B482"></path>
  <path id="Path 37" d="M12.5903 28.9554C12.29 28.9554 12.04 28.7154 12.04 28.4154L11.9399 22.7154C11.9199 21.7754 11.8999 20.9354 11.7402 20.1054C11.5703 19.2354 10 16.7654 8.74023 16.5254C8.7002 16.5154 8.66016 16.5154 8.63037 16.5054C8.37012 16.4754 8.13037 16.4154 7.74023 16.0554C7.30029 15.6554 6.70996 14.9354 6.26025 14.2554L6.18018 14.1354C5.91016 13.7154 5.74023 13.4654 5.49023 13.0354C5.33008 12.7654 5.04004 12.4554 4.74023 12.4554C4.56006 12.4554 4.43018 12.5054 4.3501 12.6054C4.22021 12.7554 4.16016 13.0454 4.2002 13.4254C4.33008 13.8454 4.6499 14.8254 4.74023 15.0754C4.8501 15.3754 4.95996 15.5854 4.95996 15.5854C5.1001 15.8554 4.99023 16.1854 4.72021 16.3254C4.4502 16.4654 4.12012 16.3554 3.97998 16.0854C3.97021 16.0754 3.84033 15.8154 3.7002 15.4554C3.57031 15.1154 3.14014 13.7554 3.12012 13.6954L3.1001 13.5854C3.02002 12.8454 3.16992 12.2654 3.52002 11.8654C3.81006 11.5354 4.24023 11.3554 4.72021 11.3554C5.39014 11.3554 6.02002 11.7754 6.43994 12.4854C6.68018 12.8854 6.83008 13.1154 7.1001 13.5354L7.18018 13.6554C7.58008 14.2554 8.11035 14.9154 8.47998 15.2454C8.6499 15.3954 8.66992 15.3954 8.77002 15.4154C8.82031 15.4254 8.88037 15.4254 8.9502 15.4454C10.8403 15.8054 12.6104 18.7954 12.8203 19.9054C12.9902 20.8154 13.02 21.7054 13.04 22.6954L13.1401 28.3954C13.1499 28.6954 12.8901 28.9554 12.5903 28.9554Z" fill-rule="nonzero" fill="#75B482"></path>
  <path id="Path 38" d="M7.81006 28.8354C7.50977 28.8354 7.25977 28.5854 7.25977 28.2854C7.25977 26.5854 7.25 24.6654 7.22021 24.2954C7.1499 24.0954 6.97021 23.6854 6.72998 23.5854C6.66992 23.5654 6.58984 23.5354 6.49023 23.4954C6.14014 23.3654 5.66016 23.1954 5.33984 23.0054C5.1499 22.9154 4.29004 22.4554 3.8501 21.7854C3.81982 21.7354 0.830078 17.1954 0.220215 16.3754C0.0698242 16.1754 0.0200195 15.9054 0.0498047 14.7554L0 8.98544C0 8.51544 0.259766 8.06544 0.740234 7.70544C1.16016 7.39544 1.75977 7.30544 2.18994 7.49544C3.2002 7.95544 3.31982 9.22544 3.35986 9.64544C3.3999 10.0754 3.5 10.6254 3.6001 11.2154C3.74023 12.0354 3.89014 12.8854 3.91016 13.5254C3.91016 13.5754 3.91016 13.6454 3.91016 13.7154C3.91016 13.8854 3.91992 14.2754 3.97021 14.3854C4.37988 14.8954 5.62012 16.3554 6.14014 16.9354C6.3999 17.2254 6.54004 17.7654 6.68994 18.4854L6.70996 18.5854C6.77979 18.8754 6.60986 19.1754 6.31982 19.2554C6.02979 19.3354 5.74023 19.1754 5.6499 18.8954C5.64014 18.8754 5.62988 18.8054 5.60986 18.7054C5.4502 17.9154 5.3501 17.7054 5.31006 17.6554C4.81006 17.0854 3.5498 15.6154 3.08984 15.0354C2.83984 14.7254 2.81982 14.2554 2.81006 13.7254L2.81006 13.5654C2.79004 12.9954 2.6499 12.1854 2.50977 11.4054C2.41016 10.7954 2.31006 10.2254 2.25977 9.75544C2.18994 9.04544 2.02002 8.63544 1.72998 8.50544C1.7002 8.49544 1.52002 8.50544 1.3999 8.59544C1.22021 8.72544 1.1001 8.88544 1.1001 8.98544L1.14014 14.7754C1.12012 15.4354 1.14014 15.6954 1.1499 15.7954C1.87988 16.8054 4.64014 21.0054 4.75977 21.1854C5.02002 21.5754 5.64014 21.9354 5.83008 22.0354C6.04004 22.1654 6.56006 22.3654 6.83984 22.4654C6.9502 22.5054 7.0498 22.5454 7.12012 22.5654C7.77979 22.8254 8.08984 23.4954 8.25977 23.9754C8.2998 24.0854 8.3501 24.2154 8.3501 28.2854C8.35986 28.5854 8.10986 28.8354 7.81006 28.8354Z" fill-rule="nonzero" fill="#75B482"></path>
  <path id="Path 39" d="M9.08984 9.07544C3.40967 3.39544 9.41992 -2.61456 15.0996 3.06544C20.8496 -2.68456 26.8696 3.32544 21.1099 9.07544C21.1099 9.07544 15.6396 15.0854 15.0996 15.0854C14.5596 15.0854 9.08984 9.07544 9.08984 9.07544Z" stroke="#1F7B76" stroke-width="1.471700"></path>
  <path id="Path 40" d="M17.7002 28.9554C17.4004 28.9454 17.1401 28.6954 17.1504 28.3954L17.25 22.6954C17.27 21.7055 17.3003 20.8155 17.4702 19.9054C17.6802 18.7954 19.46 15.8055 21.3403 15.4454C21.4102 15.4354 21.46 15.4254 21.52 15.4155C21.6201 15.4054 21.6401 15.3954 21.8101 15.2454C22.1802 14.9054 22.71 14.2554 23.1104 13.6554L23.1904 13.5354C23.46 13.1255 23.6104 12.8954 23.8501 12.4954C24.2603 11.7854 24.9004 11.3654 25.5601 11.3654C26.04 11.3654 26.4902 11.5555 26.7803 11.8755C27.1401 12.2755 27.2803 12.8554 27.2002 13.5955L27.1802 13.7054C27.1602 13.7654 26.73 15.1154 26.6001 15.4654C26.46 15.8254 26.3301 16.0854 26.3203 16.0955C26.1802 16.3654 25.8501 16.4754 25.5801 16.3354C25.3101 16.1954 25.2002 15.8654 25.3403 15.5955C25.3403 15.5955 25.4502 15.3755 25.5601 15.0854C25.6504 14.8354 25.9702 13.8654 26.1001 13.4354C26.1304 13.0555 26.0801 12.7654 25.9502 12.6154C25.8701 12.5255 25.73 12.4754 25.5601 12.4654C25.2603 12.4654 24.9702 12.7755 24.8101 13.0454C24.5601 13.4754 24.3901 13.7254 24.1201 14.1355L24.04 14.2554C23.5903 14.9354 23 15.6554 22.5601 16.0555C22.1704 16.4155 21.9302 16.4654 21.6704 16.5054C21.6401 16.5054 21.6001 16.5154 21.5601 16.5255C20.3003 16.7654 18.73 19.2355 18.5601 20.1055C18.4004 20.9354 18.3804 21.7755 18.3604 22.7155L18.2603 28.4155C18.25 28.7154 18 28.9554 17.7002 28.9554Z" fill-rule="nonzero" fill="#75B482"></path>
  <path id="Path 41" d="M22.48 28.8354C22.1802 28.8354 21.9302 28.5854 21.9302 28.2854C21.9302 24.2154 21.98 24.0854 22.02 23.9754C22.2002 23.4954 22.5103 22.8254 23.1602 22.5654C23.23 22.5354 23.3301 22.5054 23.4399 22.4654C23.7202 22.3654 24.1899 22.1954 24.4004 22.0654C24.6104 21.9654 25.27 21.5754 25.52 21.1854C25.6401 21.0054 28.4004 16.8054 29.1304 15.7954C29.1401 15.6954 29.1602 15.4454 29.1401 14.7954L29.1802 8.97545C29.1802 8.87544 29.0601 8.72545 28.8901 8.59544C28.77 8.50545 28.5903 8.49545 28.54 8.51544C28.27 8.63544 28.0903 9.04544 28.02 9.76544C27.9702 10.2354 27.8804 10.8054 27.77 11.4054C27.6401 12.1854 27.5 12.9954 27.48 13.5754L27.48 13.7354C27.4702 14.2654 27.4399 14.7354 27.2002 15.0454C26.75 15.6154 25.4902 17.0854 24.98 17.6654C24.9502 17.7154 24.8403 17.9154 24.6802 18.7054C24.6602 18.8055 24.6401 18.8654 24.6401 18.8954C24.5503 19.1854 24.2402 19.3454 23.9502 19.2554C23.6602 19.1655 23.5 18.8554 23.5903 18.5654C23.7402 17.8454 23.8901 17.2254 24.1504 16.9354C24.6602 16.3554 25.9102 14.8954 26.3301 14.3554C26.3701 14.2654 26.3701 13.8755 26.3701 13.7154C26.3701 13.6454 26.3701 13.5854 26.3701 13.5255C26.3901 12.8755 26.54 12.0354 26.6802 11.2154C26.7803 10.6355 26.8804 10.0754 26.9204 9.64545C26.96 9.22545 27.0903 7.95545 28.1001 7.49545C28.52 7.30545 29.1304 7.39545 29.5503 7.70545C30.0303 8.05545 30.29 8.51545 30.29 8.97545L30.25 14.7755C30.2803 15.8855 30.23 16.1655 30.0801 16.3755C29.4702 17.1954 26.48 21.7454 26.4502 21.7854C26.0103 22.4554 25.1504 22.9155 24.96 23.0054C24.6504 23.1954 24.1704 23.3654 23.8101 23.4954C23.71 23.5354 23.6304 23.5654 23.5703 23.5854C23.3203 23.6854 23.1504 24.0954 23.0801 24.2954C23.0503 24.6554 23.04 26.5754 23.04 28.2854C23.04 28.5854 22.79 28.8354 22.48 28.8354Z" fill-rule="nonzero" fill="#75B482"></path>
  <path id="Path 42" d="M44.5303 1.85544L50.1304 1.85544L61.96 29.6654L55.6104 29.6654L53.0903 23.4754L41.4102 23.4754L38.8901 29.6654L32.7002 29.6654L44.5303 1.85544ZM50.9204 18.1154L47.25 9.16544L43.5801 18.1154L50.9204 18.1154Z" fill-rule="nonzero" fill="#1F7B76"></path>
  <path id="Path 43" d="M64.0698 22.0554L64.0698 8.36543L70.0698 8.36543L70.0698 20.1554C70.0698 22.9954 71.4097 24.4554 73.6997 24.4554C75.9897 24.4554 77.4497 22.9954 77.4497 20.1554L77.4497 8.36543L83.4497 8.36543L83.4497 29.5054L77.4497 29.5054L77.4497 26.5054C76.0698 28.2854 74.29 29.8954 71.2598 29.8954C66.71 29.9054 64.0698 26.9054 64.0698 22.0554Z" fill-rule="nonzero" fill="#1F7B76"></path>
  <path id="Path 44" d="M87 26.8654L89.5601 22.9254C91.8501 24.5854 94.25 25.4454 96.23 25.4454C97.9702 25.4454 98.75 24.8154 98.75 23.8654C98.75 22.5654 96.7002 22.0554 94.3701 21.3454C91.4102 20.4754 88.0601 19.0954 88.0601 14.9954C88.0601 10.6954 91.5298 8.20544 95.79 8.20544C98.4702 8.20544 101.39 9.11545 103.68 10.6554L101.39 14.7954C99.2998 13.5754 97.21 12.8254 95.6699 12.8254C94.21 12.8254 93.46 13.4554 93.46 14.2854C93.46 15.4654 95.4702 16.1054 97.7598 16.8854C100.72 17.8754 104.15 19.2954 104.15 23.1554C104.15 27.8454 100.64 30.0554 96.0601 30.0554C93.1099 30.0654 89.7998 29.0754 87 26.8654Z" fill-rule="nonzero" fill="#1F7B76"></path>
  <path id="Path 45" d="M107.03 19.1354C107.03 12.0754 111.65 8.12543 116.66 8.12543C119.85 8.12543 121.83 9.58543 123.25 11.2854L123.25 0.875435L129.25 0.875435L129.25 29.6754L123.25 29.6754L123.25 26.6354C121.79 28.6054 119.78 30.0654 116.66 30.0654C111.72 30.0654 107.03 26.1954 107.03 19.1354ZM123.32 19.1354C123.32 15.6254 120.99 13.2154 118.19 13.2154C115.39 13.2154 113.021 15.5054 113.021 19.0554C113.021 22.5654 115.39 24.9754 118.19 24.9754C120.99 24.9754 123.32 22.6454 123.32 19.1354Z" fill-rule="nonzero" fill="#75B482"></path>
  <path id="Path 46" d="M132.78 19.2154C132.78 13.1454 137.67 8.12543 144.26 8.12543C150.81 8.12543 155.66 12.9754 155.66 19.0554C155.66 25.1254 150.77 30.1454 144.18 30.1454C137.63 30.1454 132.78 25.2954 132.78 19.2154ZM149.74 19.2154C149.74 16.0954 147.49 13.2954 144.18 13.2954C140.75 13.2954 138.7 15.9354 138.7 19.0554C138.7 22.1754 140.95 24.9754 144.26 24.9754C147.69 24.9754 149.74 22.3354 149.74 19.2154Z" fill-rule="nonzero" fill="#75B482"></path>
  <path id="Path 47" d="M159.37 8.52544L165.37 8.52544L165.37 11.5254C166.75 9.74544 168.53 8.13544 171.56 8.13544C176.1 8.13544 178.74 11.1354 178.74 15.9854L178.74 29.6754L172.74 29.6754L172.74 17.8754C172.74 15.0354 171.4 13.5754 169.11 13.5754C166.82 13.5754 165.36 15.0354 165.36 17.8754L165.36 29.6654L159.36 29.6654L159.37 8.52544Z" fill-rule="nonzero" fill="#75B482"></path>
  <path id="Path 48" d="M182.25 19.2154C182.25 13.1754 186.55 8.12544 192.7 8.12544C199.76 8.12544 203 13.6054 203 19.6054C203 20.0754 202.96 20.6354 202.92 21.1854L188.21 21.1854C188.8 23.9054 190.7 25.3254 193.38 25.3254C195.39 25.3254 196.85 24.6954 198.51 23.1554L201.94 26.1954C199.97 28.6454 197.13 30.1354 193.3 30.1354C186.95 30.1454 182.25 25.6854 182.25 19.2154ZM197.17 17.4454C196.82 14.7654 195.24 12.9454 192.71 12.9454C190.22 12.9454 188.61 14.7254 188.13 17.4454L197.17 17.4454Z" fill-rule="nonzero" fill="#75B482"></path>
</svg>
