<svg id="personalCare" xmlns="http://www.w3.org/2000/svg" width="76.833" height="108.568" viewBox="0 0 76.833 108.568">
  <path id="Path_1083" data-name="Path 1083" d="M40.366,23.69V16.071a8.434,8.434,0,1,0-16.866,0A12.3,12.3,0,0,0,35.681,28.452,4.73,4.73,0,0,0,40.366,23.69ZM25.374,16.071a6.56,6.56,0,1,1,13.118,0V23.69a2.838,2.838,0,0,1-2.811,2.857A10.4,10.4,0,0,1,25.374,16.071Z" transform="translate(-1.012 0.119)" fill="#1f7b76"/>
  <path id="Path_1084" data-name="Path 1084" d="M35.615,29.917l3.971-4.148-1.344-1.328-3.3,3.448-1.8-1.878L31.8,27.338l2.468,2.579A.929.929,0,0,0,35.615,29.917Z" transform="translate(6.243 15.445)" fill="#1f7b76"/>
  <path id="Path_1085" data-name="Path 1085" d="M33.8,32.4l1.649.907a27.548,27.548,0,0,1,1.645-2.684,10.188,10.188,0,0,0-.766-12.807,10.149,10.149,0,0,0-16.189.912A48.811,48.811,0,0,0,11.5,46.6V99.517a2.838,2.838,0,0,0,2.811,2.857h18.74a2.857,2.857,0,0,0,0-5.714h-.937V46.6c0-.747.036-1.476.075-2.278l-1.874-.038c-.037.777-.073,1.537-.073,2.314v8.152H13.376V46.6a46.9,46.9,0,0,1,8.3-26.786,8.292,8.292,0,0,1,13.232-.766,8.239,8.239,0,0,1,.658,10.472A28.656,28.656,0,0,0,33.8,32.4Zm-19.489,68.07a.945.945,0,0,1-.937-.952v-.952H25.555a.952.952,0,0,1,0,1.9Zm19.677-.952a.945.945,0,0,1-.937.952H28.193a2.71,2.71,0,0,0,0-1.9h4.857A.945.945,0,0,1,33.988,99.517ZM30.24,56.661v40H24.618v-40Zm-7.5,0v40h-9.37v-40Z" transform="translate(-11.5 6.194)" fill="#1f7b76"/>
  <path id="Path_1086" data-name="Path 1086" d="M35.3,29.119H23.122V22.452a.945.945,0,0,0-.937-.952H18.437a.945.945,0,0,0-.937.952v9.523a2.838,2.838,0,0,0,2.811,2.857h8.605a2.836,2.836,0,0,0,2.639,3.809h.937V92.926a2.811,2.811,0,1,0,5.622,0V35.785a2.858,2.858,0,0,0-.731-1.9,2.855,2.855,0,0,0-2.08-4.762ZM19.374,31.976V23.4h1.874v6.666a.945.945,0,0,0,.937.952H35.3a.952.952,0,0,1,0,1.9H20.311A.945.945,0,0,1,19.374,31.976ZM36.24,92.926a.937.937,0,1,1-1.874,0V37.69a.945.945,0,0,0-.937-.952H31.555a.952.952,0,0,1,0-1.9H35.3a.945.945,0,0,1,.937.952Z" transform="translate(-6.256 12.785)" fill="#1f7b76"/>
  <path id="Path_1087" data-name="Path 1087" d="M47.118,112.068h18.74a2.838,2.838,0,0,0,2.811-2.857V31.118a8.524,8.524,0,0,0-7.108-8.436,8.579,8.579,0,0,0,3.36-6.8V12.071a8.434,8.434,0,1,0-16.866,0v3.809a8.576,8.576,0,0,0,3.2,6.666H34v1.9h6.559v1.9H34v1.9h6.559v.952A2.838,2.838,0,0,0,43.37,32.07h3.748a.946.946,0,0,1,.937.952V45.48h1.874V33.023a2.838,2.838,0,0,0-2.811-2.857H43.37a.946.946,0,0,1-.937-.952V24.452h17.8a6.621,6.621,0,0,1,6.559,6.666V64.45H49.929V57.117H48.055v49.236h-.937a2.857,2.857,0,0,0,0,5.714Zm2.811-96.187V12.071a6.56,6.56,0,1,1,13.118,0v3.809a6.56,6.56,0,1,1-13.118,0Zm16.866,93.33a.946.946,0,0,1-.937.952h-9.37a.952.952,0,0,1,0-1.9H66.795Zm0-42.856v40h-9.37v-40Zm-16.866,0h5.622v40H49.929Zm-2.811,41.9h6.731a2.71,2.71,0,0,0,0,1.9H47.118a.952.952,0,0,1,0-1.9Z" transform="translate(8.165 -3.5)" fill="#1f7b76"/>
  <path id="Path_1088" data-name="Path 1088" d="M41.842,40.4,58.747,36.96a2.855,2.855,0,0,0,2.258-2.8V20.452a.945.945,0,0,0-.937-.952H56.32a.945.945,0,0,0-.937.952V31.816L40.742,34.793a2.854,2.854,0,0,0-2.206,3.362A2.814,2.814,0,0,0,41.842,40.4Zm-.735-3.735L56.5,33.53a.948.948,0,0,0,.753-.933V21.4h1.874V34.159a.952.952,0,0,1-.751.933l-16.9,3.436a.951.951,0,0,1-.369-1.867Z" transform="translate(12.08 10.975)" fill="#1f7b76"/>
  <path id="Path_1089" data-name="Path 1089" d="M38.144,38.861a8.572,8.572,0,0,0,0-17.142,8.1,8.1,0,0,0-3.615.855l-.474-.48a2.781,2.781,0,0,0-3.975,0,2.892,2.892,0,0,0,0,4.04l.472.482a8.548,8.548,0,0,0,7.592,12.245Zm-6.739-15.42a.927.927,0,0,1,1.325,0l.967.981a.92.92,0,0,0,1.138.147,6.375,6.375,0,0,1,3.309-.945,6.713,6.713,0,1,1-5.629,3.3.963.963,0,0,0-.144-1.156l-.965-.983A.964.964,0,0,1,31.405,23.441Z" transform="translate(4.02 12.566)" fill="#1f7b76"/>
</svg>
