<svg xmlns="http://www.w3.org/2000/svg" width="14.121" height="14.13" viewBox="0 0 14.121 14.13">
  <path id="phone" d="M536.4,158.01a2.635,2.635,0,0,1-1.22,1.06,3.859,3.859,0,0,1-1.87.51,7.757,7.757,0,0,1-2.63-.69,9.436,9.436,0,0,1-1.76-.83,16.768,16.768,0,0,1-4.82-4.82,9.146,9.146,0,0,1-.83-1.76,7.757,7.757,0,0,1-.69-2.63,3.889,3.889,0,0,1,.51-1.87,2.635,2.635,0,0,1,1.06-1.22,4.448,4.448,0,0,1,1.4-.31.511.511,0,0,1,.21.03c.21.07.43.56.53.76.32.57.63,1.16.96,1.72.16.26.46.58.46.89,0,.61-1.82,1.51-1.82,2.05a2.15,2.15,0,0,0,.39.86,9.987,9.987,0,0,0,4.11,4.11,2.15,2.15,0,0,0,.86.39c.54,0,1.44-1.82,2.05-1.82.31,0,.63.3.89.46.56.33,1.14.64,1.72.96.2.1.69.32.76.53a.51.51,0,0,1,.03.21A4.185,4.185,0,0,1,536.4,158.01Z" transform="translate(-522.58 -145.45)" fill="#fff"/>
</svg>
