<svg xmlns="http://www.w3.org/2000/svg" width="94.95" height="94.95" viewBox="0 0 94.95 94.95">
  <g id="TransportationAssistance" transform="translate(-7.5 -7.5)">
    <g id="Group_45" data-name="Group 45" transform="translate(7.5 7.5)">
      <path id="Path_1107" data-name="Path 1107" d="M13.5,54v1.938a2.91,2.91,0,0,0,2.907,2.907h7.751a2.91,2.91,0,0,0,2.907-2.907V54H25.126v1.938a.969.969,0,0,1-.969.969H16.407a.969.969,0,0,1-.969-.969V54Z" transform="translate(-1.874 36.105)" fill="#559a96"/>
      <path id="Path_1108" data-name="Path 1108" d="M43.5,54v1.938a2.91,2.91,0,0,0,2.907,2.907h7.751a2.91,2.91,0,0,0,2.907-2.907V54H55.126v1.938a.97.97,0,0,1-.969.969H46.407a.97.97,0,0,1-.969-.969V54Z" transform="translate(26.259 36.105)" fill="#559a96"/>
      <path id="Path_1109" data-name="Path 1109" d="M53.875,29.5H50v1.938h3.875a2.908,2.908,0,0,1,1.4,5.453l.949,1.69a4.846,4.846,0,0,0-2.354-9.08Z" transform="translate(32.354 13.13)" fill="#559a96"/>
      <path id="Path_1110" data-name="Path 1110" d="M14.344,31.438H18.22V29.5H14.344A4.851,4.851,0,0,0,9.5,34.344a4.909,4.909,0,0,0,2.482,4.232l.965-1.68a2.966,2.966,0,0,1-1.51-2.552A2.91,2.91,0,0,1,14.344,31.438Z" transform="translate(-5.625 13.13)" fill="#559a96"/>
      <path id="Path_1111" data-name="Path 1111" d="M96.7,70.85V59.224A12.6,12.6,0,0,0,85.072,46.677V32.1a12.61,12.61,0,0,0-12.6-12.6H67.555v1.938h4.922A10.67,10.67,0,0,1,83.134,32.1V46.628H81.018a2.874,2.874,0,0,0,.178-.969V32.1a8.731,8.731,0,0,0-8.72-8.72H63.989v1.938h8.487A6.79,6.79,0,0,1,79.259,32.1V45.66a.97.97,0,0,1-.969.969h-.969V43.722a4.85,4.85,0,0,0-4.844-4.844h-.025a4.8,4.8,0,0,0,.994-2.907V32.1a4.844,4.844,0,0,0-9.689,0v3.875a4.788,4.788,0,0,0,.994,2.907h-.025a4.85,4.85,0,0,0-4.844,4.844v2.907H46.317V43.722a4.851,4.851,0,0,0-4.844-4.844h-.025a4.8,4.8,0,0,0,.994-2.907V32.1a4.844,4.844,0,0,0-9.689,0v3.875a4.788,4.788,0,0,0,.994,2.907h-.025a4.851,4.851,0,0,0-4.844,4.844v2.907h-.969a.969.969,0,0,1-.969-.969V32.1a6.79,6.79,0,0,1,6.782-6.782h8.487V23.375H33.722A8.731,8.731,0,0,0,25,32.1V45.66a2.874,2.874,0,0,0,.178.969H23.064V32.1A10.669,10.669,0,0,1,33.722,21.438h4.922V19.5H33.722a12.61,12.61,0,0,0-12.6,12.6V46.677A12.6,12.6,0,0,0,9.5,59.224V70.85h1.938V59.224A10.669,10.669,0,0,1,22.1,48.566H84.1A10.67,10.67,0,0,1,94.761,59.224V70.85Zm-31-34.879V32.1a2.907,2.907,0,0,1,5.813,0v3.875a2.907,2.907,0,1,1-5.813,0Zm-31,0V32.1a2.907,2.907,0,0,1,5.813,0v3.875a2.907,2.907,0,1,1-5.813,0ZM30.815,46.628V43.722a2.91,2.91,0,0,1,2.907-2.907h7.751a2.91,2.91,0,0,1,2.907,2.907v2.907Zm31,0V43.722a2.91,2.91,0,0,1,2.907-2.907h7.751a2.91,2.91,0,0,1,2.907,2.907v2.907Z" transform="translate(-5.625 3.753)" fill="#559a96"/>
      <path id="Path_1112" data-name="Path 1112" d="M12.344,57.189H97.605a4.844,4.844,0,1,0,0-9.689H12.344a4.844,4.844,0,0,0,0,9.689Zm0-7.751H97.605a2.907,2.907,0,1,1,0,5.813H12.344a2.907,2.907,0,1,1,0-5.813Z" transform="translate(-7.5 30.01)" fill="#559a96"/>
      <path id="Path_1113" data-name="Path 1113" d="M20.282,37.5a6.782,6.782,0,1,0,6.782,6.782A6.79,6.79,0,0,0,20.282,37.5Zm0,11.626a4.844,4.844,0,1,1,4.844-4.844A4.851,4.851,0,0,1,20.282,49.126Z" transform="translate(-1.874 20.632)" fill="#559a96"/>
      <path id="Path_1114" data-name="Path 1114" d="M43.5,44.282A6.782,6.782,0,1,0,50.282,37.5,6.79,6.79,0,0,0,43.5,44.282Zm11.626,0a4.844,4.844,0,1,1-4.844-4.844A4.85,4.85,0,0,1,55.126,44.282Z" transform="translate(26.259 20.632)" fill="#559a96"/>
      <path id="Path_1115" data-name="Path 1115" d="M25.5,40.407v7.751a2.907,2.907,0,1,0,5.813,0V40.407a2.907,2.907,0,0,0-5.813,0Zm3.875,0v7.751a.969.969,0,1,1-1.938,0V40.407a.969.969,0,1,1,1.938,0Z" transform="translate(9.379 20.632)" fill="#559a96"/>
      <path id="Path_1116" data-name="Path 1116" d="M31.5,40.407v7.751a2.907,2.907,0,1,0,5.813,0V40.407a2.907,2.907,0,1,0-5.813,0Zm3.875,0v7.751a.969.969,0,1,1-1.938,0V40.407a.969.969,0,1,1,1.938,0Z" transform="translate(15.006 20.632)" fill="#559a96"/>
      <path id="Path_1117" data-name="Path 1117" d="M37.5,40.407v7.751a2.907,2.907,0,1,0,5.813,0V40.407a2.907,2.907,0,1,0-5.813,0Zm3.875,0v7.751a.969.969,0,1,1-1.938,0V40.407a.969.969,0,1,1,1.938,0Z" transform="translate(20.632 20.632)" fill="#559a96"/>
      <path id="Path_1118" data-name="Path 1118" d="M36.126,36.258v1.277a2.907,2.907,0,0,0,5.813,0V36.258a14.533,14.533,0,1,0-5.813,0Zm2.907-26.82a12.587,12.587,0,0,1,1.8,25.045.97.97,0,0,0-.831.959v2.093a.969.969,0,0,1-1.938,0V35.442a.97.97,0,0,0-.831-.959,12.587,12.587,0,0,1,1.8-25.045Z" transform="translate(8.442 -7.5)" fill="#559a96"/>
      <path id="Path_1119" data-name="Path 1119" d="M31.948,21.762a2.8,2.8,0,0,0,4,.014l5.278-5.261a2.834,2.834,0,1,0-4-4.017l-3.269,3.279-.634-.634a2.908,2.908,0,0,0-3.98-.017,2.826,2.826,0,0,0-.017,4.015ZM30.7,16.514a.882.882,0,0,1,1.256,0l1.32,1.32a.97.97,0,0,0,1.372,0l3.936-3.947a.9.9,0,0,1,1.277-.017.913.913,0,0,1,0,1.275c-.512.512-4.777,4.765-5.284,5.267a.857.857,0,0,1-1.252-.008L30.7,17.774A.894.894,0,0,1,30.7,16.514Z" transform="translate(12.194 -3.584)" fill="#559a96"/>
    </g>
  </g>
</svg>
