<svg width="18.023926" height="18.436279" viewBox="0 0 18.0239 18.4363" fill="none" xmlns="http://www.w3.org/2000/svg" xmlns:xlink="http://www.w3.org/1999/xlink">
	<desc>
			Created with Pixso.
	</desc>
	<defs/>
	<path id="Path 1124" d="M15.9545 1.13782L18.0239 8.05725L18.0239 17.2983C18.0239 17.6213 17.9304 17.8981 17.7435 18.1133C17.5566 18.3286 17.3163 18.4363 17.0359 18.4363L16.0079 18.4363C15.7275 18.4363 15.4872 18.3286 15.3003 18.1133C15.1134 17.8981 15.0199 17.6213 15.0199 17.2983L15.0199 16.1144L3.00403 16.1144L3.00403 17.2983C3.00403 17.6213 2.91052 17.8981 2.72363 18.1133C2.53674 18.3286 2.29639 18.4363 2.01599 18.4363L0.988037 18.4363C0.707642 18.4363 0.467285 18.3286 0.280396 18.1133C0.0935059 17.8981 0 17.6213 0 17.2983L0 8.05725L2.06946 1.13782C2.25635 0.384399 2.73694 0 3.52466 0L14.5126 0C15.287 0 15.7676 0.384399 15.9545 1.13782ZM2.01599 6.91931L16.0079 6.91931L14.5126 1.72217L3.52466 1.72217L2.01599 6.91931ZM2.46997 12.132C2.76367 12.4702 3.12415 12.6394 3.52466 12.6394C3.92517 12.6394 4.28564 12.4702 4.57947 12.132C4.87317 11.7937 5.02002 11.3939 5.02002 10.9172C5.02002 10.4406 4.87317 10.0408 4.57947 9.70251C4.28564 9.36414 3.92517 9.19507 3.52466 9.19507C3.12415 9.19507 2.76367 9.36414 2.46997 9.70251C2.17627 10.0408 2.01599 10.4559 2.01599 10.9172C2.01599 11.3785 2.16284 11.7937 2.46997 12.132ZM13.4445 12.132C13.7383 12.4702 14.0988 12.6394 14.4993 12.6394C14.8998 12.6394 15.2603 12.4702 15.554 12.132C15.8477 11.7937 15.9945 11.3785 15.9945 10.9172C15.9945 10.4559 15.8477 10.0408 15.554 9.70251C15.2603 9.36414 14.8998 9.19507 14.4993 9.19507C14.0988 9.19507 13.7383 9.36414 13.4445 9.70251C13.1508 10.0408 13.0039 10.4559 13.0039 10.9172C13.0039 11.3785 13.1508 11.7937 13.4445 12.132Z" fill-rule="nonzero" fill="#1F7B76"/>
</svg>
