<svg width="71.620850" height="99.499939" viewBox="0 0 71.6208 99.4999" fill="none" xmlns="http://www.w3.org/2000/svg" xmlns:xlink="http://www.w3.org/1999/xlink">
	<desc>
			Created with Pixso.
	</desc>
	<defs/>
	<path id="Path 1090" d="M28.823 90.7656C14.0726 90.7656 1.93201 78.7787 1.76428 64.0458L0.0174561 64.0668C0.197388 79.7517 13.1206 92.5125 28.823 92.5125C39.3163 92.5125 48.9799 86.8107 54.0422 77.6328L52.5138 76.7891C47.7571 85.4097 38.6804 90.7656 28.823 90.7656Z" fill-rule="nonzero" fill="#1F7B76"/>
	<path id="Path 1091" d="M12.7537 75.7428L11.3545 76.7909C12.1283 77.8215 12.9808 78.7771 13.8822 79.6278L15.0806 78.3544C14.249 77.5735 13.4664 76.6948 12.7537 75.7428Z" fill-rule="nonzero" fill="#1F7B76"/>
	<path id="Path 1092" d="M19.5403 79.4391L18.0031 81.5528C17.6903 81.979 17.8301 82.5834 18.2913 82.8333C21.5894 84.6324 25.2053 85.5321 28.823 85.5321C32.4407 85.5321 36.0585 84.6324 39.3547 82.8333C39.8159 82.5817 39.9504 81.9843 39.6465 81.5563L38.1267 79.4426L36.7065 80.4628L37.6359 81.7537C32.0494 84.4595 25.5984 84.4613 20.012 81.7554L20.95 80.4662L19.5403 79.4391Z" fill-rule="nonzero" fill="#1F7B76"/>
	<path id="Path 1093" d="M44.8188 75.8353C44.1689 76.7158 43.4092 77.563 42.5671 78.3543L43.762 79.6277C44.6826 78.7631 45.5123 77.8372 46.2251 76.8729L44.8188 75.8353Z" fill-rule="nonzero" fill="#1F7B76"/>
	<path id="Path 1094" d="M28.823 76.7907C13.9346 76.7907 1.94592 64.7968 1.76428 50.1058L0.0174561 50.1285C0.214844 65.7908 12.9913 78.5375 28.823 78.5375C37.9171 78.5375 46.0767 74.3224 51.3417 67.728L49.9773 66.638C45.0372 72.8219 37.3826 76.7907 28.823 76.7907Z" fill-rule="nonzero" fill="#1F7B76"/>
	<path id="Path 1095" d="M12.7817 61.8134L11.3929 62.8737C12.193 63.9218 13.0088 64.8301 13.8822 65.6512L15.0806 64.3777C14.2753 63.6249 13.524 62.7846 12.7817 61.8134Z" fill-rule="nonzero" fill="#1F7B76"/>
	<path id="Path 1096" d="M19.5403 65.4644L18.0032 67.5781C16.5305 69.5939 25.0691 71.5574 28.8231 71.5574C32.4408 71.5574 36.0586 70.6577 39.3549 68.8585C39.816 68.6087 39.9558 68.0043 39.6431 67.5781L38.1058 65.4644L36.6926 66.4915L37.6307 67.7807C32.046 70.4866 25.5967 70.4866 20.012 67.7807L20.9501 66.4915L19.5403 65.4644Z" fill-rule="nonzero" fill="#1F7B76"/>
	<path id="Path 1097" d="M28.823 6.91687C12.9302 6.91687 0 19.847 0 35.7399C0 51.6327 12.9302 64.5629 28.823 64.5629C33.8942 64.5629 38.8779 63.23 43.2363 60.7059L42.3594 59.1948C38.2682 61.5635 33.5884 62.816 28.823 62.816C13.8927 62.816 1.74683 50.6702 1.74683 35.7399C1.74683 20.8096 13.8927 8.6637 28.823 8.6637C34.6924 8.6637 40.2823 10.5067 44.9849 13.9951L46.026 12.5906C41.0195 8.8786 35.0715 6.91687 28.823 6.91687Z" fill-rule="nonzero" fill="#1F7B76"/>
	<path id="Path 1098" d="M7.36816 31.6434C6.00391 39.1095 8.36914 46.4952 13.8805 51.6711C14.2612 52.0309 14.8761 51.9733 15.1836 51.5488L25.2856 37.6351C25.6367 37.153 25.4097 36.4735 24.8489 36.2901L8.49841 30.9709C7.99353 30.8085 7.46423 31.1246 7.36816 31.6434ZM8.92639 32.9484L23.1649 37.5792L14.3643 49.6989C9.88538 45.0715 8.10706 38.9103 8.92639 32.9484Z" fill-rule="nonzero" fill="#1F7B76"/>
	<path id="Path 1099" d="M9.58142 27.6537L25.932 32.9728C26.4893 33.1545 27.0762 32.7457 27.0762 32.1431L27.0762 14.954C27.0762 14.4352 26.6272 14.03 26.0962 14.0876C18.632 15.003 12.2629 19.6269 9.0592 26.4536C8.83728 26.9287 9.08362 27.4912 9.58142 27.6537ZM25.3293 15.9655L25.3293 30.9395L11.0873 26.3068C13.973 20.8864 19.2957 17.0223 25.3293 15.9655Z" fill-rule="nonzero" fill="#1F7B76"/>
	<path id="Path 1100" d="M18.2878 54.8784C24.8298 58.4786 32.8059 58.4838 39.3601 54.8784C39.823 54.6233 39.954 54.0224 39.6448 53.5997L29.5305 39.686C29.2021 39.2336 28.4458 39.2336 28.1173 39.686L18.0031 53.5997C17.694 54.0224 17.825 54.6233 18.2878 54.8784ZM28.8231 41.6844L37.6342 53.804C32.1683 56.4628 25.4779 56.4628 20.012 53.804L28.8231 41.6844Z" fill-rule="nonzero" fill="#1F7B76"/>
	<path id="Path 1101" d="M42.6161 21.1414L43.8179 19.8714C40.4133 16.6572 36.172 14.6553 31.5515 14.0841C31.0066 14.0282 30.5698 14.4387 30.5698 14.9523L30.5698 32.1413C30.5698 32.7387 31.1567 33.1544 31.7123 32.9728L43.0668 29.2869L42.527 27.6257L32.3167 30.9395L32.3167 15.9655C36.1859 16.6345 39.7285 18.4146 42.6161 21.1414Z" fill-rule="nonzero" fill="#1F7B76"/>
	<path id="Path 1102" d="M43.5035 50.0239L34.4792 37.5793L43.0668 34.7878L42.5271 33.1266L32.7971 36.2884C32.2382 36.47 32.0093 37.1513 32.3604 37.6317L42.0903 51.0475L43.5035 50.0239Z" fill-rule="nonzero" fill="#1F7B76"/>
	<path id="Path 1103" d="M45.4181 61.9427C45.4181 63.3873 46.5938 64.5629 48.0383 64.5629L55.8992 64.5629C55.8992 77.9263 55.8992 82.8105 55.8992 95.1328C55.8992 97.54 57.8574 99.4999 60.2664 99.4999L67.2537 99.4999C69.6626 99.4999 71.6208 97.54 71.6208 95.1328C71.6208 77.0302 71.6208 20.7939 71.6208 2.62317C71.6208 1.05273 70.267 -0.108948 68.7526 0.00811768C55.6686 1.02478 45.4181 12.1173 45.4181 25.2589L45.4181 61.9427ZM69.874 90.7657L57.646 90.7657L57.646 64.5629L69.874 64.5629L69.874 90.7657ZM69.874 95.1328C69.874 96.5775 68.6984 97.7531 67.2537 97.7531L60.2664 97.7531C58.8217 97.7531 57.646 96.5775 57.646 95.1328L57.646 92.5125L69.874 92.5125L69.874 95.1328ZM47.1649 25.2589C47.1649 13.0239 56.708 2.69653 68.8905 1.74976C69.4478 1.71307 69.874 2.12183 69.874 2.62317L69.874 62.8161C62.2682 62.8161 55.6196 62.8161 48.0383 62.8161C47.558 62.8161 47.1649 62.4248 47.1649 61.9427L47.1649 25.2589Z" fill-rule="nonzero" fill="#1F7B76"/>
	<path id="Path 1104" d="M63.7599 71.5502C65.2046 71.5502 66.3802 70.3746 66.3802 68.93C66.3802 67.4854 65.2046 66.3097 63.7599 66.3097C62.3153 66.3097 61.1396 67.4854 61.1396 68.93C61.1396 70.3746 62.3153 71.5502 63.7599 71.5502ZM63.7599 68.0565C64.2404 68.0565 64.6333 68.4478 64.6333 68.93C64.6333 69.4121 64.2404 69.8034 63.7599 69.8034C63.2795 69.8034 62.8865 69.4121 62.8865 68.93C62.8865 68.4478 63.2795 68.0565 63.7599 68.0565Z" fill-rule="nonzero" fill="#1F7B76"/>
	<path id="Path 1105" d="M63.7599 78.5377C65.2046 78.5377 66.3802 77.3621 66.3802 75.9174C66.3802 74.4728 65.2046 73.2971 63.7599 73.2971C62.3153 73.2971 61.1396 74.4728 61.1396 75.9174C61.1396 77.3621 62.3153 78.5377 63.7599 78.5377ZM63.7599 75.0439C64.2404 75.0439 64.6333 75.4352 64.6333 75.9174C64.6333 76.3995 64.2404 76.7908 63.7599 76.7908C63.2795 76.7908 62.8865 76.3995 62.8865 75.9174C62.8865 75.4352 63.2795 75.0439 63.7599 75.0439Z" fill-rule="nonzero" fill="#1F7B76"/>
	<path id="Path 1106" d="M63.7599 85.525C65.2046 85.525 66.3802 84.3494 66.3802 82.9047C66.3802 81.4601 65.2046 80.2844 63.7599 80.2844C62.3153 80.2844 61.1396 81.4601 61.1396 82.9047C61.1396 84.3494 62.3153 85.525 63.7599 85.525ZM63.7599 82.0312C64.2404 82.0312 64.6333 82.4225 64.6333 82.9047C64.6333 83.3868 64.2404 83.7781 63.7599 83.7781C63.2795 83.7781 62.8865 83.3868 62.8865 82.9047C62.8865 82.4225 63.2795 82.0312 63.7599 82.0312Z" fill-rule="nonzero" fill="#1F7B76"/>
</svg>
