<svg width="76.833313" height="108.567749" viewBox="0 0 76.8333 108.568" fill="none" xmlns="http://www.w3.org/2000/svg" xmlns:xlink="http://www.w3.org/1999/xlink">
	<desc>
			Created with Pixso.
	</desc>
	<defs/>
	<path id="Path 1083" d="M39.3536 23.8087L39.3536 16.1899C39.3536 11.4644 35.5701 7.61877 30.9207 7.61877C26.2714 7.61877 22.4878 11.4644 22.4878 16.1899C22.4878 23.0164 27.9523 28.5704 34.6687 28.5704C37.251 28.5704 39.3536 26.4333 39.3536 23.8087ZM24.3618 16.1899C24.3618 12.5139 27.304 9.5235 30.9207 9.5235C34.5375 9.5235 37.4797 12.5139 37.4797 16.1899L37.4797 23.8087C37.4797 25.3839 36.2184 26.6657 34.6687 26.6657C28.9849 26.6657 24.3618 21.9669 24.3618 16.1899Z" fill-rule="nonzero" fill="#1F7B76"/>
	<path id="Path 1084" d="M41.8572 45.3624L45.8282 41.2139L44.4846 39.8864L41.1845 43.3339L39.3873 41.4558L38.0437 42.7834L40.5117 45.3624C40.8809 45.7471 41.4899 45.7471 41.8572 45.3624Z" fill-rule="nonzero" fill="#1F7B76"/>
	<path id="Path 1085" d="M22.3004 38.593L23.9495 39.4996C24.4105 38.6329 24.9652 37.7282 25.5948 36.8159C28.3909 32.8008 28.0966 27.8943 24.8284 24.0087C20.4826 18.8641 12.5182 19.2908 8.63904 24.921C2.98712 33.1036 0 42.7433 0 52.7982C0 63.8092 0 94.6748 0 105.711C0 107.286 1.26117 108.568 2.81097 108.568C24.8602 108.568 -0.123657 108.568 21.5508 108.568C23.1006 108.568 24.3618 107.286 24.3618 105.711C24.3618 104.135 23.1006 102.854 21.5508 102.854L20.6138 102.854C20.6138 80.6467 20.6138 75.1097 20.6138 52.7982C20.6138 52.0515 20.6494 51.322 20.6888 50.5201L18.8148 50.4821C18.7773 51.2592 18.7417 52.0192 18.7417 52.7963L18.7417 60.9484C-1.04382 60.9484 24.6373 60.9484 1.87585 60.9484L1.87585 52.7963C1.87585 43.1356 4.74683 33.8731 10.1776 26.0105C13.3409 21.4202 19.8417 21.0221 23.4098 25.2448C26.1327 28.4828 26.3782 32.3951 24.0676 35.7169C23.3892 36.694 22.7951 37.6616 22.3004 38.593ZM2.81097 106.663C2.29376 106.663 1.87396 106.236 1.87396 105.711L1.87396 104.758C6.52521 104.758 9.3905 104.758 14.0549 104.758C14.5721 104.758 14.9919 105.185 14.9919 105.711C14.9919 106.236 14.5721 106.663 14.0549 106.663C7.47156 106.663 9.38306 106.663 2.81097 106.663ZM22.4878 105.711C22.4878 106.236 22.068 106.663 21.5508 106.663L16.6934 106.663C16.924 106.006 16.924 105.415 16.6934 104.758C23.1999 104.758 17.1563 104.758 21.5508 104.758C22.068 104.758 22.4878 105.185 22.4878 105.711ZM18.7398 62.855L18.7398 102.854C15.4547 102.854 16.4105 102.854 13.1179 102.854L13.1179 62.855L18.7398 62.855ZM11.2439 62.855L11.2439 102.854L1.87396 102.854L1.87396 62.855L11.2439 62.855Z" fill-rule="nonzero" fill="#1F7B76"/>
	<path id="Path 1086" d="M29.0468 41.9033L16.8658 41.9033L16.8658 35.2369C16.8658 34.7112 16.446 34.2845 15.9288 34.2845L12.1809 34.2845C11.6637 34.2845 11.2439 34.7112 11.2439 35.2369L11.2439 44.7604C11.2439 46.3356 12.5051 47.6174 14.0549 47.6174L22.6602 47.6174C22.5552 47.9164 22.4878 48.2346 22.4878 48.5698C22.4878 50.145 23.749 51.4268 25.2988 51.4268L26.2358 51.4268L26.2358 105.711C26.2358 107.286 27.4969 108.568 29.0468 108.568C30.5965 108.568 31.8577 107.286 31.8577 105.711L31.8577 48.5698C31.8577 47.8345 31.5766 47.1717 31.1268 46.665C31.5766 46.1584 31.8577 45.4956 31.8577 44.7604C31.8577 43.1852 30.5965 41.9033 29.0468 41.9033ZM13.1179 44.7604L13.1179 36.1893L14.9919 36.1893L14.9919 42.8557C14.9919 43.3813 15.4116 43.808 15.9288 43.808L29.0468 43.808C29.564 43.808 29.9837 44.2347 29.9837 44.7604C29.9837 45.2861 29.564 45.7127 29.0468 45.7127C23.571 45.7127 19.3695 45.7127 14.0549 45.7127C13.5377 45.7127 13.1179 45.2861 13.1179 44.7604ZM29.9837 105.711C29.9837 106.236 29.564 106.663 29.0468 106.663C28.5295 106.663 28.1097 106.236 28.1097 105.711L28.1097 50.4745C28.1097 49.9488 27.6899 49.5221 27.1727 49.5221L25.2988 49.5221C24.7816 49.5221 24.3618 49.0955 24.3618 48.5698C24.3618 48.0441 24.7816 47.6174 25.2988 47.6174L29.0468 47.6174C29.564 47.6174 29.9837 48.0441 29.9837 48.5698L29.9837 105.711Z" fill-rule="nonzero" fill="#1F7B76"/>
	<path id="Path 1087" d="M55.2825 108.568C62.0682 108.568 67.0698 108.568 74.0223 108.568C75.5721 108.568 76.8333 107.286 76.8333 105.711C76.8333 78.8334 76.8333 55.4857 76.8333 27.6181C76.8333 23.3535 73.7431 19.8355 69.7253 19.1822C71.7529 17.6165 73.0853 15.1633 73.0853 12.3806L73.0853 8.57111C73.0853 3.84558 69.3018 0 64.6524 0C60.0031 0 56.2195 3.84558 56.2195 8.57111L56.2195 12.3806C56.2195 15.0871 57.4844 17.4756 59.4165 19.0469C49.8573 19.0469 51.9374 19.0469 42.1646 19.0469L42.1646 20.9517L48.7236 20.9517L48.7236 22.8563L42.1646 22.8563L42.1646 24.761L48.7236 24.761L48.7236 25.7134C48.7236 27.2886 49.9847 28.5704 51.5345 28.5704L55.2825 28.5704C55.7979 28.5704 56.2195 28.9971 56.2195 29.5228L56.2195 41.9795L58.0934 41.9795L58.0934 29.5228C58.0934 27.9476 56.8323 26.6658 55.2825 26.6658L51.5345 26.6658C51.0192 26.6658 50.5975 26.2391 50.5975 25.7134C50.5975 24.0601 50.5975 22.6049 50.5975 20.9517L68.4004 20.9517C72.0172 20.9517 74.9593 23.942 74.9593 27.6181L74.9593 60.9503C69.3655 60.9503 64.5175 60.9503 58.0934 60.9503L58.0934 53.6172L56.2195 53.6172C56.2195 82.7686 56.2195 73.7136 56.2195 102.854L55.2825 102.854C53.7327 102.854 52.4715 104.135 52.4715 105.711C52.4715 107.286 53.7327 108.568 55.2825 108.568ZM58.0934 12.3806L58.0934 8.57111C58.0934 4.89508 61.0356 1.90472 64.6524 1.90472C68.2692 1.90472 71.2114 4.89508 71.2114 8.57111L71.2114 12.3806C71.2114 16.0566 68.2692 19.0469 64.6524 19.0469C61.0356 19.0469 58.0934 16.0566 58.0934 12.3806ZM74.9593 105.711C74.9593 106.236 74.5377 106.663 74.0223 106.663C69.8564 106.663 68.8201 106.663 64.6524 106.663C64.1371 106.663 63.7154 106.236 63.7154 105.711C63.7154 105.185 64.1371 104.758 64.6524 104.758C68.3123 104.758 71.2769 104.758 74.9593 104.758L74.9593 105.711ZM74.9593 62.855L74.9593 102.854C66.9143 102.854 68.9307 102.854 65.5894 102.854L65.5894 62.855C69.075 62.855 67.0661 62.855 74.9593 62.855ZM58.0934 62.855L63.7154 62.855L63.7154 102.854L58.0934 102.854L58.0934 62.855ZM55.2825 104.758C58.0522 104.758 59.2647 104.758 62.0139 104.758C61.7833 105.415 61.7833 106.006 62.0139 106.663L55.2825 106.663C54.7672 106.663 54.3455 106.236 54.3455 105.711C54.3455 105.185 54.7672 104.758 55.2825 104.758Z" fill-rule="nonzero" fill="#1F7B76"/>
	<path id="Path 1088" d="M53.9219 51.3715L70.8271 47.9354C72.1352 47.6688 73.0853 46.4897 73.0853 45.1336L73.0853 31.4274C73.0853 30.9017 72.6655 30.4751 72.1483 30.4751L68.4003 30.4751C67.8831 30.4751 67.4634 30.9017 67.4634 31.4274L67.4634 42.7908L52.8219 45.7679C51.3228 46.0707 50.3052 47.5602 50.6163 49.1297C50.9217 50.6839 52.4153 51.682 53.9219 51.3715ZM53.1874 47.6364L68.584 44.5051C69.0225 44.4156 69.3373 44.0251 69.3373 43.5718L69.3373 32.3798L71.2113 32.3798L71.2113 45.1336C71.2113 45.585 70.8946 45.9774 70.4598 46.067L53.5565 49.503C53.043 49.6002 52.5558 49.2706 52.4528 48.7563C52.3516 48.2421 52.6776 47.7411 53.1874 47.6364Z" fill-rule="nonzero" fill="#1F7B76"/>
	<path id="Path 1089" d="M42.1647 51.4268C46.814 51.4268 50.5976 47.5812 50.5976 42.8557C50.5976 38.1301 46.814 34.2845 42.1647 34.2845C40.9128 34.2845 39.7004 34.5721 38.5497 35.1398L38.0756 34.6598C36.9794 33.5455 35.1972 33.5455 34.1009 34.6598C33.0046 35.774 33.0046 37.5854 34.1009 38.6996L34.5731 39.1815C34.0147 40.351 33.7318 41.5834 33.7318 42.8557C33.7318 47.5812 37.5153 51.4268 42.1647 51.4268ZM35.4258 36.0064C35.7931 35.635 36.3834 35.635 36.7507 36.0064L37.7177 36.9873C38.0231 37.2978 38.4897 37.3549 38.8552 37.134C39.9009 36.5073 41.0159 36.1893 42.1647 36.1893C45.7814 36.1893 48.7236 39.1796 48.7236 42.8557C48.7236 46.5317 45.7814 49.5222 42.1647 49.5222C38.5479 49.5222 35.6057 46.5317 35.6057 42.8557C35.6057 41.6881 35.9186 40.5548 36.5352 39.492C36.7526 39.1187 36.6926 38.6425 36.3909 38.3358L35.4258 37.353C35.0604 36.9816 35.0604 36.3778 35.4258 36.0064Z" fill-rule="nonzero" fill="#1F7B76"/>
</svg>
