<svg width="94.949585" height="94.949707" viewBox="0 0 94.9496 94.9497" fill="none" xmlns="http://www.w3.org/2000/svg" xmlns:xlink="http://www.w3.org/1999/xlink">
	<desc>
			Created with Pixso.
	</desc>
	<defs/>
	<path id="Path 1107" d="M11.6265 90.1053L11.6265 92.0431C11.6265 93.6456 12.9305 94.9497 14.5331 94.9497L22.2841 94.9497C23.8866 94.9497 25.1907 93.6456 25.1907 92.0431L25.1907 90.1053L23.2529 90.1053L23.2529 92.0431C23.2529 92.5779 22.8188 93.012 22.2841 93.012L14.5331 93.012C13.9983 93.012 13.5642 92.5779 13.5642 92.0431L13.5642 90.1053L11.6265 90.1053Z" fill-rule="nonzero" fill="#559A96"/>
	<path id="Path 1108" d="M69.7589 90.1053L69.7589 92.0431C69.7589 93.6456 71.063 94.9497 72.6655 94.9497L80.4165 94.9497C82.019 94.9497 83.3231 93.6456 83.3231 92.0431L83.3231 90.1053L81.3854 90.1053L81.3854 92.0431C81.3854 92.5779 80.9495 93.012 80.4165 93.012L72.6655 93.012C72.1327 93.012 71.6967 92.5779 71.6967 92.0431L71.6967 90.1053L69.7589 90.1053Z" fill-rule="nonzero" fill="#559A96"/>
	<path id="Path 1109" d="M86.2299 42.6304L82.3544 42.6304L82.3544 44.5681L86.2299 44.5681C87.8324 44.5681 89.1365 45.8722 89.1365 47.4747C89.1365 48.525 88.561 49.4997 87.6348 50.0209L88.5842 51.7106C90.1208 50.8464 91.0742 49.2245 91.0742 47.4747C91.0742 44.8045 88.902 42.6304 86.2299 42.6304Z" fill-rule="nonzero" fill="#559A96"/>
	<path id="Path 1110" d="M8.71997 44.5681L12.5955 44.5681L12.5955 42.6304L8.71997 42.6304C6.0498 42.6304 3.87561 44.8045 3.87561 47.4747C3.87561 49.2071 4.82703 50.827 6.35791 51.7068L7.32288 50.0267C6.39075 49.4919 5.81335 48.5134 5.81335 47.4747C5.81335 45.8722 7.11743 44.5681 8.71997 44.5681Z" fill-rule="nonzero" fill="#559A96"/>
	<path id="Path 1111" d="M91.0741 74.6032L91.0741 62.9767C91.0741 56.3593 85.941 50.9279 79.4476 50.4298L79.4476 35.8483C79.4476 28.9034 73.7971 23.2529 66.8523 23.2529L61.9304 23.2529L61.9304 25.1907L66.8523 25.1907C72.7275 25.1907 77.5099 29.9711 77.5099 35.8483L77.5099 50.3813L75.3938 50.3813C75.5023 50.0771 75.5721 49.7535 75.5721 49.4125L75.5721 35.8483C75.5721 31.0407 71.6598 27.1284 66.8523 27.1284L58.3649 27.1284L58.3649 29.0662L66.8523 29.0662C70.592 29.0662 73.6344 32.1085 73.6344 35.8483L73.6344 49.4125C73.6344 49.9473 73.1984 50.3813 72.6655 50.3813L71.6967 50.3813L71.6967 47.4747C71.6967 44.8046 69.5244 42.6304 66.8523 42.6304C67.4666 41.8185 67.8212 40.8186 67.8212 39.7238L67.8212 35.8483C67.8212 33.178 65.6489 31.0039 62.9768 31.0039C60.3046 31.0039 58.1324 33.178 58.1324 35.8483L58.1324 39.7238C58.1324 40.8186 58.5103 41.8185 59.1265 42.6304C56.4543 42.6304 54.2568 44.8046 54.2568 47.4747L54.2568 50.3813L40.6926 50.3813L40.6926 47.4747C40.6926 44.8046 38.5186 42.6304 35.8483 42.6304C36.4625 41.8185 36.8171 40.8186 36.8171 39.7238L36.8171 35.8483C36.8171 33.178 34.6431 31.0039 31.9728 31.0039C29.3026 31.0039 27.1284 33.178 27.1284 35.8483L27.1284 39.7238C27.1284 40.8186 27.5063 41.8185 28.1226 42.6304C25.4523 42.6304 23.2529 44.8046 23.2529 47.4747L23.2529 50.3813L22.2841 50.3813C21.7493 50.3813 21.3152 49.9473 21.3152 49.4125L21.3152 35.8483C21.3152 32.1085 24.3574 29.0662 28.0973 29.0662L36.5846 29.0662L36.5846 27.1284L28.0973 27.1284C23.2898 27.1284 19.3774 31.0407 19.3774 35.8483L19.3774 49.4125C19.3774 49.7535 19.4473 50.0771 19.5558 50.3813L17.4397 50.3813L17.4397 35.8483C17.4397 29.9711 22.2201 25.1907 28.0973 25.1907L33.0192 25.1907L33.0192 23.2529L28.0973 23.2529C21.1525 23.2529 15.502 28.9034 15.502 35.8483L15.502 50.4298C9.00854 50.9279 3.87549 56.3574 3.87549 62.9767L3.87549 74.6032L5.81323 74.6032L5.81323 62.9767C5.81323 57.0995 10.5936 52.3191 16.4708 52.3191C39.563 52.3191 50.3931 52.3191 78.4788 52.3191C84.354 52.3191 89.1364 57.0995 89.1364 62.9767L89.1364 74.6032L91.0741 74.6032ZM60.0702 39.7238L60.0702 35.8483C60.0702 34.2458 61.3743 32.9417 62.9768 32.9417C64.5792 32.9417 65.8834 34.2458 65.8834 35.8483L65.8834 39.7238C65.8834 41.3263 64.5792 42.6304 62.9768 42.6304C61.3743 42.6304 60.0702 41.3263 60.0702 39.7238ZM29.0662 39.7238L29.0662 35.8483C29.0662 34.2458 30.3702 32.9417 31.9728 32.9417C33.5753 32.9417 34.8794 34.2458 34.8794 35.8483L34.8794 39.7238C34.8794 41.3263 33.5753 42.6304 31.9728 42.6304C30.3702 42.6304 29.0662 41.3263 29.0662 39.7238ZM25.1907 50.3813L25.1907 47.4747C25.1907 45.8723 26.4948 44.5681 28.0973 44.5681L35.8483 44.5681C37.4508 44.5681 38.7549 45.8723 38.7549 47.4747L38.7549 50.3813L25.1907 50.3813ZM56.1947 50.3813L56.1947 47.4747C56.1947 45.8723 57.4988 44.5681 59.1013 44.5681L66.8523 44.5681C68.4548 44.5681 69.7589 45.8723 69.7589 47.4747L69.7589 50.3813L56.1947 50.3813Z" fill-rule="nonzero" fill="#559A96"/>
	<path id="Path 1112" d="M4.84436 87.1986L90.1052 87.1986C92.7773 87.1986 94.9496 85.0245 94.9496 82.3542C94.9496 79.684 92.7773 77.5099 90.1052 77.5099L4.84436 77.5099C2.17419 77.5099 0 79.684 0 82.3542C0 85.0245 2.17419 87.1986 4.84436 87.1986ZM4.84436 79.4476L90.1052 79.4476C91.7078 79.4476 93.0118 80.7518 93.0118 82.3542C93.0118 83.9568 91.7078 85.2609 90.1052 85.2609L4.84436 85.2609C3.24182 85.2609 1.93774 83.9568 1.93774 82.3542C1.93774 80.7518 3.24182 79.4476 4.84436 79.4476Z" fill-rule="nonzero" fill="#559A96"/>
	<path id="Path 1113" d="M18.4086 58.1324C14.6687 58.1324 11.6265 61.1747 11.6265 64.9146C11.6265 68.6544 14.6687 71.6967 18.4086 71.6967C22.1484 71.6967 25.1907 68.6544 25.1907 64.9146C25.1907 61.1747 22.1484 58.1324 18.4086 58.1324ZM18.4086 69.7589C15.7384 69.7589 13.5642 67.5848 13.5642 64.9146C13.5642 62.2443 15.7384 60.0702 18.4086 60.0702C21.0787 60.0702 23.2529 62.2443 23.2529 64.9146C23.2529 67.5848 21.0787 69.7589 18.4086 69.7589Z" fill-rule="nonzero" fill="#559A96"/>
	<path id="Path 1114" d="M69.7589 64.9146C69.7589 68.6544 72.8011 71.6967 76.541 71.6967C80.2809 71.6967 83.3231 68.6544 83.3231 64.9146C83.3231 61.1747 80.2809 58.1324 76.541 58.1324C72.8011 58.1324 69.7589 61.1747 69.7589 64.9146ZM81.3854 64.9146C81.3854 67.5848 79.2131 69.7589 76.541 69.7589C73.8689 69.7589 71.6967 67.5848 71.6967 64.9146C71.6967 62.2443 73.8689 60.0702 76.541 60.0702C79.2131 60.0702 81.3854 62.2443 81.3854 64.9146Z" fill-rule="nonzero" fill="#559A96"/>
	<path id="Path 1115" d="M34.8794 61.0391L34.8794 68.79C34.8794 70.3926 36.1835 71.6967 37.786 71.6967C39.3885 71.6967 40.6926 70.3926 40.6926 68.79L40.6926 61.0391C40.6926 59.4365 39.3885 58.1324 37.786 58.1324C36.1835 58.1324 34.8794 59.4365 34.8794 61.0391ZM38.7549 61.0391L38.7549 68.79C38.7549 69.3249 38.3208 69.7589 37.786 69.7589C37.2512 69.7589 36.8171 69.3249 36.8171 68.79L36.8171 61.0391C36.8171 60.5042 37.2512 60.0702 37.786 60.0702C38.3208 60.0702 38.7549 60.5042 38.7549 61.0391Z" fill-rule="nonzero" fill="#559A96"/>
	<path id="Path 1116" d="M46.5059 61.0391L46.5059 68.79C46.5059 70.3926 47.8099 71.6967 49.4125 71.6967C51.015 71.6967 52.3191 70.3926 52.3191 68.79L52.3191 61.0391C52.3191 59.4365 51.015 58.1324 49.4125 58.1324C47.8099 58.1324 46.5059 59.4365 46.5059 61.0391ZM50.3813 61.0391L50.3813 68.79C50.3813 69.3249 49.9453 69.7589 49.4125 69.7589C48.8777 69.7589 48.4436 69.3249 48.4436 68.79L48.4436 61.0391C48.4436 60.5042 48.8777 60.0702 49.4125 60.0702C49.9453 60.0702 50.3813 60.5042 50.3813 61.0391Z" fill-rule="nonzero" fill="#559A96"/>
	<path id="Path 1117" d="M58.1326 61.0391L58.1326 68.79C58.1326 70.3926 59.4366 71.6967 61.0392 71.6967C62.6417 71.6967 63.9458 70.3926 63.9458 68.79L63.9458 61.0391C63.9458 59.4365 62.6417 58.1324 61.0392 58.1324C59.4366 58.1324 58.1326 59.4365 58.1326 61.0391ZM62.0081 61.0391L62.0081 68.79C62.0081 69.3249 61.572 69.7589 61.0392 69.7589C60.5063 69.7589 60.0703 69.3249 60.0703 68.79L60.0703 61.0391C60.0703 60.5042 60.5063 60.0702 61.0392 60.0702C61.572 60.0702 62.0081 60.5042 62.0081 61.0391Z" fill-rule="nonzero" fill="#559A96"/>
	<path id="Path 1118" d="M44.5681 28.7581L44.5681 30.0351C44.5681 31.6376 45.8722 32.9417 47.4747 32.9417C49.0773 32.9417 50.3813 31.6376 50.3813 30.0351L50.3813 28.7581C57.0647 27.3959 62.0078 21.4237 62.0078 14.5331C62.0078 6.51855 55.4893 0 47.4747 0C39.4602 0 32.9417 6.51855 32.9417 14.5331C32.9417 21.4237 37.8829 27.3959 44.5681 28.7581ZM47.4747 1.93774C54.4197 1.93774 60.0701 7.5882 60.0701 14.5331C60.0701 20.7494 55.4292 26.1014 49.2749 26.9831C48.7963 27.0529 48.4436 27.4617 48.4436 27.9423L48.4436 30.0351C48.4436 30.5699 48.0095 31.004 47.4747 31.004C46.9399 31.004 46.5059 30.5699 46.5059 30.0351L46.5059 27.9423C46.5059 27.4598 46.1512 27.0529 45.6746 26.9831C39.5203 26.1014 34.8794 20.7494 34.8794 14.5331C34.8794 7.5882 40.5299 1.93774 47.4747 1.93774Z" fill-rule="nonzero" fill="#559A96"/>
	<path id="Path 1119" d="M44.1421 18.178C45.2698 19.3329 47.0719 19.2864 48.1454 18.1916C48.1454 18.1916 51.7922 14.5564 53.4238 12.9306C54.5303 11.8222 54.5303 10.0201 53.4238 8.91364C52.3329 7.82269 50.5831 7.81494 49.4243 8.91364L46.1554 12.1923L45.5217 11.5587C44.454 10.491 42.5743 10.5084 41.5416 11.5413C40.4661 12.5605 40.3693 14.4052 41.5242 15.5563L44.1421 18.178ZM42.8942 12.9306C43.2429 12.5799 43.803 12.5818 44.1498 12.9306L45.4694 14.2502C45.8453 14.6261 46.4576 14.632 46.8413 14.2502L50.7769 10.303C51.209 9.89417 51.7573 9.99103 52.0538 10.2856C52.4008 10.6324 52.4008 11.2157 52.0558 11.5606C51.5442 12.0722 47.2792 16.3256 46.7715 16.8274C46.4227 17.184 45.8821 17.1878 45.5198 16.8196L42.8922 14.1901C42.5278 13.8239 42.5667 13.2426 42.8942 12.9306Z" fill-rule="nonzero" fill="#559A96"/>
</svg>
