<svg width="16.047974" height="21.027710" viewBox="0 0 16.048 21.0277" fill="none" xmlns="http://www.w3.org/2000/svg" xmlns:xlink="http://www.w3.org/1999/xlink">
	<desc>
			Created with Pixso.
	</desc>
	<defs/>
	<path id="Path 1128" d="M14.032 7.03589C14.566 7.03589 15.0333 7.23621 15.4338 7.62341C15.8344 8.0105 16.048 8.47778 16.048 9.01184L16.048 19.0518C16.048 19.5858 15.8477 20.0398 15.4338 20.4403C15.0199 20.8408 14.5526 21.0277 14.032 21.0277L2.01599 21.0277C1.48193 21.0277 1.01465 20.8275 0.614136 20.4403C0.213623 20.0531 0 19.5858 0 19.0518L0 9.01184C0 8.47778 0.200317 8.02393 0.614136 7.62341C1.02808 7.2229 1.49536 7.03589 2.01599 7.03589L3.00403 7.03589L3.00403 5.0199C3.00403 3.64478 3.49792 2.45654 4.48596 1.48193C5.47388 0.507324 6.6488 0 8.02393 0C9.39917 0 10.5874 0.494019 11.562 1.48193C12.5366 2.46997 13.0439 3.64478 13.0439 5.0199L13.0439 7.03589L14.032 7.03589ZM12.016 15.0198L12.016 13.0438L9.01196 13.0438L9.01196 10.0399L7.03601 10.0399L7.03601 13.0438L4.03198 13.0438L4.03198 15.0198L7.03601 15.0198L7.03601 18.0238L9.01196 18.0238L9.01196 15.0198L12.016 15.0198ZM4.92651 5.0199L4.92651 7.03589L11.1215 7.03589L11.1215 5.0199C11.1215 4.17883 10.8143 3.44458 10.2002 2.84375C9.58606 2.24292 8.86511 1.92249 8.02393 1.92249C7.18286 1.92249 6.44861 2.22961 5.84778 2.84375C5.24695 3.45789 4.92651 4.17883 4.92651 5.0199Z" fill-rule="nonzero" fill="#1F7B76"/>
</svg>
