<svg width="188.140625" height="27.992920" viewBox="0 0 188.141 27.9929" fill="none" xmlns="http://www.w3.org/2000/svg" xmlns:xlink="http://www.w3.org/1999/xlink">
	<desc>
			Created with Pixso.
	</desc>
	<defs/>
	<path id="Path 49" d="M15.9317 26.241C15.8761 23.1733 15.8483 19.9109 16.1078 18.947C16.2561 18.3909 17.0995 15.5828 19.0921 14.8506C19.7964 14.5911 19.9818 14.4521 20.2042 14.2944C20.2598 14.248 20.5935 13.9795 21.3906 12.7747C21.5203 12.5798 21.6315 12.3945 21.7335 12.2371C22.1505 11.5696 22.4286 11.1248 22.9105 10.9858C22.9198 10.9858 24.2822 10.6057 24.9217 11.0415C25.1255 11.1804 25.246 11.3936 25.2646 11.6252C25.2924 11.9775 25.2924 13.9053 24.6436 14.6653C24.4675 14.8784 24.2914 15.0637 24.1431 15.2305C24.0134 15.3789 23.8466 15.5549 23.8002 15.6292C23.7632 15.7217 23.652 15.8794 23.2534 16.2593L22.9383 17.5012L21.9467 17.251L22.3359 15.7124L22.4471 15.6106C22.6232 15.4438 22.8178 15.2583 22.8734 15.175C22.9383 15.0359 23.0681 14.8877 23.3832 14.5354C23.5315 14.3779 23.6983 14.1926 23.8651 13.9888C24.1339 13.6736 24.2636 12.4873 24.2544 11.8477C24.0226 11.8105 23.5129 11.8569 23.2071 11.9497C23.0959 11.9868 22.8178 12.4224 22.6047 12.7654C22.5027 12.9321 22.3822 13.1174 22.2525 13.3213C21.6315 14.2759 21.1496 14.8784 20.8066 15.1194C20.5009 15.3418 20.2228 15.5178 19.4536 15.8052C18.2765 16.2407 17.4517 17.9089 17.1088 19.2065C16.8492 20.1611 16.9419 24.5542 16.9697 26.2131L15.9317 26.241Z" fill-rule="nonzero" fill="#75B482"/>
	<path id="Path 50" d="M20.334 26.2683C20.2877 25.6011 20.1486 23.386 20.3154 22.8115C20.473 22.2368 20.7974 21.0876 22.4842 20.6057C22.7993 20.5129 23.1885 20.2349 23.3646 20.0959C24.6622 18.1682 26.7104 15.0913 26.9977 14.5815C27.0255 14.1829 27.007 12.3108 26.9884 11.0596C26.9699 9.63232 26.9699 8.78906 26.9792 8.53882C26.9421 8.43677 26.7474 8.18652 26.5157 8.14014C26.4416 8.12158 26.3675 8.12158 26.2655 8.21436C26.1914 8.58496 26.108 8.92798 26.0338 9.23389C25.9412 9.6416 25.8577 9.98462 25.8392 10.1885C25.8207 10.3831 25.7558 10.8743 25.6816 11.4304C25.6075 11.9585 25.4963 12.7556 25.4963 12.8855C25.4963 13.0615 25.4963 13.2747 23.7354 15.7307L22.9012 15.1375C23.5685 14.2107 24.3285 13.0894 24.4675 12.7927C24.4861 12.5796 24.5417 12.1348 24.6529 11.2913C24.7178 10.7908 24.7919 10.2717 24.8104 10.0957C24.8383 9.81763 24.9217 9.4563 25.0329 8.99292C25.1071 8.66846 25.1997 8.28857 25.2831 7.88062L25.3109 7.76025C25.7095 7.25049 26.3675 6.99097 26.9514 7.21338C27.563 7.45435 28.045 8.09375 27.9987 8.60352C27.9801 8.77979 27.9987 9.9939 28.0079 11.0596C28.045 14.2107 28.0357 14.7019 27.9801 14.8779C27.9523 14.9707 27.8782 15.2302 24.1617 20.7446L24.069 20.8467C24.0042 20.9023 23.3832 21.4304 22.7529 21.6067C21.6223 21.9309 21.4554 22.5149 21.3071 23.0247C21.2238 23.3027 21.2515 24.9431 21.3442 26.2129L20.334 26.2683Z" fill-rule="nonzero" fill="#75B482"/>
	<path id="Path 51" d="M11.1587 26.4355L11.066 21.1528C11.0474 20.2815 11.0289 19.5029 10.8806 18.7339C10.7231 17.9275 9.26801 15.6382 8.10022 15.4158C8.06317 15.4065 8.03534 15.4065 7.99829 15.3972C7.75732 15.3694 7.53485 15.314 7.1734 14.9802C6.76562 14.6096 6.21881 13.9421 5.80176 13.312L5.73688 13.21C5.47736 12.8208 5.3291 12.5891 5.09741 12.1907C4.9491 11.9404 4.68036 11.6531 4.40228 11.6531C4.23547 11.6531 4.11499 11.6995 4.04083 11.792C3.92035 11.9312 3.86475 12.2 3.90179 12.552C4.02228 12.9412 4.31885 13.8496 4.40228 14.0813C4.50421 14.3501 4.6062 14.554 4.6062 14.554L3.69794 15.0266C3.68866 15.0173 3.56818 14.7764 3.43842 14.4426C3.31793 14.1277 2.91943 12.8672 2.90088 12.8115L2.87305 12.7002C2.79895 12.0144 2.93793 11.4771 3.26233 11.1062C3.53107 10.8003 3.92963 10.6335 4.37451 10.6335C4.97693 10.6335 5.58862 11.0227 5.97784 11.6809C6.20026 12.0608 6.33929 12.2739 6.58954 12.6541L6.65442 12.7559C7.02515 13.312 7.51636 13.9236 7.85925 14.2295C8.01678 14.3687 8.03534 14.3687 8.12805 14.3872C8.17438 14.3962 8.22998 14.3962 8.28558 14.4148C10.0372 14.7485 11.6777 17.5198 11.8723 18.5483C12.0298 19.3918 12.0577 20.2166 12.0762 21.1343L12.1689 26.417L11.1587 26.4355Z" fill-rule="nonzero" fill="#75B482"/>
	<path id="Path 52" d="M7.74805 26.3247L6.72858 26.3247C6.72858 24.7493 6.7193 22.9697 6.69153 22.6267C6.62665 22.4414 6.45978 22.0615 6.23737 21.9688C6.18176 21.9502 6.09833 21.9224 6.00568 21.8853C5.68127 21.7649 5.23645 21.6072 4.9491 21.4312C4.77301 21.3479 3.97595 20.9214 3.56818 20.3005C3.54041 20.2634 0.769226 16.0464 0.203918 15.2866C0.0648804 15.1011 0.0185547 14.8508 0.0463257 13.7852L0 8.4375C0 8.00195 0.240967 7.58472 0.685852 7.25122C1.07507 6.96387 1.64044 6.88037 2.02972 7.0564C2.96576 7.48291 3.07697 8.65991 3.11407 9.04907C3.15112 9.44775 3.24377 9.95752 3.33649 10.5042C3.46625 11.2642 3.60529 12.052 3.62378 12.645C3.62378 12.6914 3.62378 12.7563 3.62378 12.8213C3.62378 12.9788 3.63306 13.3403 3.67938 13.4421C4.05939 13.9148 5.20862 15.2681 5.69055 15.8054C5.93152 16.0742 6.06128 16.5747 6.20032 17.2419L5.23645 17.6221C5.22717 17.6035 5.2179 17.5386 5.19934 17.446C5.05109 16.7139 4.95837 16.519 4.92133 16.4729C4.50427 16.0002 3.29944 14.5913 2.86383 14.0447C2.63214 13.7573 2.61359 13.3218 2.60431 12.8306L2.60431 12.6821C2.58575 12.1538 2.45599 11.4033 2.33551 10.6711C2.24286 10.1057 2.15021 9.57739 2.10382 9.14185C2.02972 8.49316 1.87213 8.11304 1.60339 7.99268C1.56628 7.9834 1.40875 7.99268 1.28827 8.07593C1.13068 8.19653 1.01947 8.34473 1.01947 8.4375L1.05658 13.8037C1.03802 14.4153 1.05658 14.6562 1.0658 14.749C1.74237 15.6851 4.30035 19.5776 4.41156 19.7444C4.64325 20.106 5.20862 20.4395 5.40326 20.5322C5.5979 20.6526 6.07983 20.8381 6.33008 20.9307C6.43201 20.9678 6.52466 21.0049 6.58954 21.0234C7.20123 21.2644 7.48853 21.8853 7.64612 22.3301C7.70172 22.4321 7.74805 22.5527 7.74805 26.3247Z" fill-rule="nonzero" fill="#75B482"/>
	<path id="Path 53" d="M11.6684 26.8896C11.3904 26.8896 11.1587 26.6672 11.1587 26.3892L11.066 21.1064C11.0474 20.2351 11.0289 19.4565 10.8806 18.6875C10.7231 17.8811 9.26801 15.5918 8.10022 15.3694C8.06317 15.3601 8.02606 15.3601 7.99829 15.3508C7.75732 15.323 7.53485 15.2676 7.1734 14.9338C6.76562 14.5632 6.21881 13.8958 5.80176 13.2656L5.7276 13.1543C5.47736 12.7651 5.31982 12.5334 5.08813 12.135C4.93982 11.8848 4.67108 11.5974 4.39301 11.5974C4.2262 11.5974 4.10571 11.6438 4.03156 11.7363C3.91107 11.8755 3.85547 12.1443 3.89258 12.4963C4.01306 12.8855 4.30963 13.7939 4.39301 14.0256C4.495 14.3037 4.59692 14.4983 4.59692 14.4983C4.72668 14.7485 4.62469 15.0544 4.37451 15.1841C4.12427 15.3137 3.81842 15.2119 3.68866 14.9617C3.67938 14.9524 3.5589 14.7114 3.42914 14.3777C3.30865 14.0627 2.91016 12.8022 2.8916 12.7466L2.87305 12.6445C2.79895 11.9587 2.93793 11.4214 3.26233 11.0505C3.53107 10.7446 3.92963 10.5779 4.37451 10.5779C4.99542 10.5779 5.57935 10.967 5.96857 11.6252C6.19104 11.9958 6.33002 12.209 6.58026 12.5984L6.65442 12.7095C7.02515 13.2656 7.51636 13.8772 7.85925 14.1831C8.01678 14.3223 8.03534 14.3223 8.12805 14.3406C8.17438 14.3499 8.22998 14.3499 8.29486 14.3684C10.0465 14.7021 11.687 17.4734 11.8816 18.502C12.0391 19.3455 12.067 20.1702 12.0854 21.0879L12.1782 26.3706C12.1874 26.6487 11.9465 26.8896 11.6684 26.8896Z" fill-rule="nonzero" fill="#FFFFFF"/>
	<path id="Path 54" d="M7.23834 26.7783C6.96027 26.7783 6.72858 26.5466 6.72858 26.2686C6.72858 24.6931 6.7193 22.9136 6.69153 22.5706C6.62665 22.3853 6.45978 22.0054 6.23737 21.9126C6.18176 21.894 6.1076 21.8662 6.01495 21.8291C5.69055 21.7087 5.24567 21.551 4.9491 21.375C4.77301 21.2917 3.97595 20.8652 3.56818 20.2444C3.54041 20.198 0.769226 15.9902 0.203918 15.2305C0.0648804 15.0449 0.0185547 14.7947 0.0463257 13.729L0 8.38135C0 7.9458 0.240967 7.52856 0.685852 7.19507C1.07507 6.90771 1.63116 6.82422 2.02972 7.00024C2.96576 7.42676 3.07697 8.60376 3.11407 8.99292C3.15112 9.3916 3.24377 9.90137 3.33649 10.448C3.46625 11.208 3.60529 11.9958 3.62378 12.5889C3.62378 12.6353 3.62378 12.7002 3.62378 12.7651C3.62378 12.9226 3.63306 13.2842 3.67938 13.386C4.05939 13.8586 5.20862 15.2119 5.69055 15.7493C5.93152 16.0181 6.06128 16.5186 6.20032 17.1858C6.2652 17.4546 6.12616 17.8254 5.85736 17.8997C5.58862 17.9736 5.31982 17.8254 5.23645 17.5659C5.22717 17.5474 5.2179 17.4824 5.19934 17.3899C5.05109 16.6577 4.95837 16.4629 4.92133 16.4167C4.45789 15.8884 3.29016 14.5259 2.86383 13.9885C2.63214 13.7012 2.61359 13.2656 2.60431 12.7744L2.60431 12.626C2.58575 12.0977 2.45599 11.3472 2.32629 10.6243C2.23358 10.0588 2.14093 9.53052 2.09454 9.09497C2.02972 8.43701 1.87213 8.05688 1.60339 7.93652C1.57556 7.92725 1.40875 7.93652 1.29755 8.01978C1.13068 8.14038 1.01947 8.28857 1.01947 8.38135L1.05658 13.7476C1.03802 14.3591 1.05658 14.6001 1.0658 14.6929C1.74237 15.6289 4.30035 19.5215 4.41156 19.6882C4.65253 20.0498 5.22717 20.3833 5.40326 20.4761C5.5979 20.5964 6.07983 20.782 6.33929 20.8745C6.44128 20.9116 6.53394 20.9487 6.59882 20.9673C7.21051 21.2083 7.4978 21.8291 7.6554 22.2742C7.69244 22.376 7.73877 22.4966 7.73877 26.2686C7.74805 26.5466 7.51636 26.7783 7.23834 26.7783Z" fill-rule="nonzero" fill="#FFFFFF"/>
	<path id="Path 55" d="M8.42468 8.46509C3.16046 3.20093 8.73053 -2.36914 13.9948 2.89502C19.3239 -2.43408 24.9032 3.13599 19.5648 8.46509C19.5648 8.46509 14.4952 14.0352 13.9948 14.0352C13.4943 14.0352 8.42468 8.46509 8.42468 8.46509Z" stroke="#FFFFFF" stroke-width="1.471700"/>
	<path id="Path 56" d="M16.4044 26.8896C16.1263 26.8804 15.8854 26.6487 15.8946 26.3706L15.9873 21.0879C16.0059 20.1702 16.0336 19.3455 16.1912 18.502C16.3858 17.4734 18.0355 14.7021 19.7779 14.3684C19.8428 14.3591 19.8892 14.3499 19.9448 14.3408C20.0374 14.3315 20.056 14.3223 20.2135 14.1831C20.5565 13.8679 21.0476 13.2656 21.4183 12.7095L21.4925 12.5984C21.7427 12.2183 21.8818 12.0051 22.1042 11.6345C22.4842 10.9763 23.0773 10.5872 23.689 10.5872C24.1339 10.5872 24.551 10.7632 24.8197 11.0598C25.1534 11.4307 25.2831 11.968 25.209 12.6538L25.1904 12.7559C25.1719 12.8115 24.7734 14.0627 24.6529 14.387C24.5231 14.7207 24.4026 14.9617 24.3934 14.9709C24.2636 15.2212 23.9578 15.323 23.7076 15.1934C23.4573 15.0637 23.3553 14.7578 23.4851 14.5076C23.4851 14.5076 23.5871 14.3037 23.689 14.0349C23.7724 13.8032 24.069 12.9041 24.1895 12.5056C24.2173 12.1536 24.171 11.8848 24.0505 11.7456C23.9763 11.6624 23.8466 11.616 23.689 11.6067C23.4109 11.6067 23.1422 11.894 22.9939 12.1443C22.7622 12.5427 22.6047 12.7744 22.3544 13.1543L22.2803 13.2656C21.8632 13.8958 21.3164 14.5632 20.9086 14.9338C20.5472 15.2676 20.3247 15.314 20.0837 15.3508C20.056 15.3508 20.0189 15.3601 19.9818 15.3694C18.814 15.5918 17.3589 17.8811 17.2014 18.6875C17.0531 19.4565 17.0346 20.2351 17.0161 21.1064L16.9233 26.3892C16.9141 26.6672 16.6824 26.8896 16.4044 26.8896Z" fill-rule="nonzero" fill="#FFFFFF"/>
	<path id="Path 57" d="M20.8345 26.7783C20.5564 26.7783 20.3247 26.5466 20.3247 26.2686C20.3247 22.4966 20.371 22.376 20.4081 22.2739C20.575 21.8291 20.8622 21.2083 21.4647 20.9673C21.5295 20.9395 21.6223 20.9116 21.7242 20.8745C21.9837 20.782 22.4193 20.6243 22.6139 20.5039C22.8085 20.4111 23.4202 20.0498 23.6519 19.6882C23.7631 19.5215 26.3211 15.6289 26.9977 14.6929C27.007 14.6001 27.0255 14.3684 27.007 13.7661L27.044 8.37207C27.044 8.2793 26.9328 8.14038 26.7753 8.01978C26.664 7.93652 26.4972 7.92725 26.4509 7.9458C26.2006 8.05688 26.0338 8.43701 25.9689 9.10425C25.9226 9.53979 25.8392 10.0681 25.7372 10.6243C25.6168 11.3472 25.487 12.0977 25.4684 12.6353L25.4684 12.7837C25.4592 13.2749 25.4314 13.7104 25.2089 13.9978C24.7919 14.5259 23.6241 15.8884 23.1514 16.426C23.1237 16.4722 23.0217 16.6577 22.8734 17.3899C22.8549 17.4824 22.8363 17.5381 22.8363 17.5659C22.7529 17.8347 22.4656 17.9829 22.1968 17.8997C21.928 17.8162 21.7798 17.5288 21.8632 17.26C22.0022 16.5928 22.1412 16.0181 22.3822 15.7493C22.8549 15.2119 24.0134 13.8586 24.4026 13.3582C24.4397 13.2749 24.4397 12.9133 24.4397 12.7651C24.4397 12.7002 24.4397 12.6445 24.4397 12.5889C24.4583 11.9866 24.5972 11.208 24.727 10.448C24.8197 9.9104 24.9124 9.3916 24.9495 8.99292C24.9865 8.60376 25.107 7.42676 26.0431 7.00024C26.4323 6.82422 26.9977 6.90771 27.3869 7.19507C27.8318 7.51929 28.0728 7.9458 28.0728 8.37207L28.0357 13.7476C28.0635 14.7761 28.0172 15.0356 27.8781 15.2305C27.3128 15.9902 24.5416 20.2073 24.5139 20.2444C24.1061 20.8652 23.309 21.2917 23.1329 21.375C22.8456 21.551 22.4008 21.7087 22.0671 21.8291C21.9744 21.8662 21.9003 21.894 21.8447 21.9126C21.613 22.0054 21.4554 22.3853 21.3905 22.5706C21.3627 22.9043 21.3535 24.6838 21.3535 26.2686C21.3535 26.5466 21.1218 26.7783 20.8345 26.7783Z" fill-rule="nonzero" fill="#FFFFFF"/>
	<path id="Path 58" d="M41.2704 1.77368L46.4605 1.77368L57.4246 27.5481L51.5394 27.5481L49.2039 21.811L38.3788 21.811L36.0433 27.5481L30.3064 27.5481L41.2704 1.77368ZM47.1927 16.8435L43.7914 8.54858L40.39 16.8435L47.1927 16.8435Z" fill-rule="nonzero" fill="#FFFFFF"/>
	<path id="Path 59" d="M59.3801 20.4949L59.3801 7.80688L64.9409 7.80688L64.9409 18.7339C64.9409 21.366 66.1829 22.719 68.3052 22.719C70.4276 22.719 71.7807 21.366 71.7807 18.7339L71.7807 7.80688L77.3416 7.80688L77.3416 27.3994L71.7807 27.3994L71.7807 24.6191C70.5017 26.2688 68.8521 27.761 66.0438 27.761C61.8269 27.7703 59.3801 24.9897 59.3801 20.4949Z" fill-rule="nonzero" fill="#FFFFFF"/>
	<path id="Path 60" d="M80.6317 24.9526L83.0043 21.301C85.1267 22.8394 87.351 23.6365 89.1861 23.6365C90.7987 23.6365 91.5216 23.0527 91.5216 22.1721C91.5216 20.9673 89.6217 20.4946 87.4622 19.8367C84.7189 19.0303 81.6141 17.7512 81.6141 13.9514C81.6141 9.96606 84.8301 7.65845 88.7783 7.65845C91.2621 7.65845 93.9684 8.50195 96.0908 9.9292L93.9684 13.7661C92.0314 12.6353 90.0944 11.9402 88.6671 11.9402C87.314 11.9402 86.6188 12.5242 86.6188 13.2935C86.6188 14.387 88.4817 14.9802 90.6041 15.7031C93.3474 16.6206 96.5264 17.9368 96.5264 21.5142C96.5264 25.8608 93.2733 27.9089 89.0286 27.9089C86.2945 27.9182 83.2267 27.0007 80.6317 24.9526Z" fill-rule="nonzero" fill="#FFFFFF"/>
	<path id="Path 61" d="M99.1956 17.7888C99.1956 11.2456 103.477 7.58472 108.121 7.58472C111.077 7.58472 112.912 8.93799 114.228 10.5134L114.228 0.865479L119.789 0.865479L119.789 27.5574L114.228 27.5574L114.228 24.74C112.875 26.5657 111.012 27.9187 108.121 27.9187C103.542 27.9187 99.1956 24.332 99.1956 17.7888ZM114.293 17.7888C114.293 14.5359 112.134 12.3022 109.539 12.3022C106.944 12.3022 104.747 14.4246 104.747 17.7146C104.747 20.9678 106.944 23.2014 109.539 23.2014C112.134 23.2014 114.293 21.042 114.293 17.7888Z" fill-rule="nonzero" fill="#FFFFFF"/>
	<path id="Path 62" d="M123.061 17.863C123.061 12.2373 127.593 7.58472 133.7 7.58472C139.771 7.58472 144.266 12.0796 144.266 17.7146C144.266 23.3403 139.734 27.9929 133.626 27.9929C127.556 27.9929 123.061 23.4978 123.061 17.863ZM138.779 17.863C138.779 14.9714 136.694 12.3762 133.626 12.3762C130.447 12.3762 128.547 14.823 128.547 17.7146C128.547 20.6062 130.633 23.2014 133.7 23.2014C136.879 23.2014 138.779 20.7546 138.779 17.863Z" fill-rule="nonzero" fill="#FFFFFF"/>
	<path id="Path 63" d="M147.704 7.95508L153.265 7.95508L153.265 10.7354C154.544 9.08569 156.194 7.59351 159.002 7.59351C163.21 7.59351 165.656 10.374 165.656 14.8689L165.656 27.5569L160.096 27.5569L160.096 16.6206C160.096 13.9885 158.854 12.6353 156.731 12.6353C154.609 12.6353 153.256 13.9885 153.256 16.6206L153.256 27.5476L147.695 27.5476L147.704 7.95508Z" fill-rule="nonzero" fill="#FFFFFF"/>
	<path id="Path 64" d="M168.909 17.863C168.909 12.2651 172.895 7.58472 178.594 7.58472C185.138 7.58472 188.141 12.6636 188.141 18.2244C188.141 18.6599 188.104 19.179 188.066 19.6887L174.433 19.6887C174.98 22.2097 176.741 23.5256 179.225 23.5256C181.088 23.5256 182.441 22.9419 183.979 21.5146L187.158 24.332C185.332 26.6028 182.7 27.9836 179.151 27.9836C173.265 27.9929 168.909 23.8594 168.909 17.863ZM182.737 16.2224C182.413 13.7388 180.949 12.052 178.604 12.052C176.296 12.052 174.804 13.7017 174.359 16.2224L182.737 16.2224Z" fill-rule="nonzero" fill="#FFFFFF"/>
</svg>
