<svg width="15.560059" height="11.929932" viewBox="0 0 15.5601 11.9299" fill="none" xmlns="http://www.w3.org/2000/svg" xmlns:xlink="http://www.w3.org/1999/xlink">
	<desc>
			Created with Pixso.
	</desc>
	<defs/>
	<path id="Path 66" d="M15.28 3.01001L8.01001 10.28L6.64001 11.6499C6.45996 11.8301 6.20996 11.9299 5.95996 11.9299C5.70996 11.9299 5.45996 11.8301 5.28003 11.6499L3.91003 10.28L0.280029 6.6499C0.0999756 6.46997 0 6.20996 0 5.95996C0 5.70996 0.0999756 5.45996 0.280029 5.28003L1.65002 3.90991C1.82996 3.72998 2.07996 3.62988 2.32996 3.62988C2.57996 3.62988 2.82996 3.72998 3.01001 3.90991L5.95996 6.87012L12.55 0.27002C12.73 0.100098 12.98 0 13.23 0C13.48 0 13.73 0.100098 13.91 0.280029L15.28 1.6499C15.46 1.83008 15.5601 2.08008 15.5601 2.33008C15.5601 2.58008 15.46 2.83008 15.28 3.01001Z" fill-rule="nonzero" fill="#FFFFFF"/>
</svg>
