<svg width="14.120544" height="14.129883" viewBox="0 0 14.1205 14.1299" fill="none" xmlns="http://www.w3.org/2000/svg" xmlns:xlink="http://www.w3.org/1999/xlink">
	<desc>
			Created with Pixso.
	</desc>
	<defs/>
	<path id="Path 92" d="M13.82 12.5601C13.61 13.05 13.05 13.3701 12.6 13.6201C12.01 13.9399 11.4 14.1299 10.73 14.1299C9.80005 14.1299 8.95001 13.75 8.10004 13.4399C7.49005 13.22 6.89001 12.95 6.34003 12.6101C4.63 11.5601 2.57001 9.5 1.52002 7.79004C1.17999 7.23999 0.910034 6.6499 0.690002 6.03003C0.380005 5.17993 0 4.33008 0 3.3999C0 2.72998 0.190002 2.12988 0.51001 1.53003C0.76001 1.08008 1.08002 0.52002 1.57001 0.310059C1.90002 0.159912 2.60004 0 2.97003 0C3.04004 0 3.11005 0 3.18005 0.0300293C3.39008 0.100098 3.61005 0.590088 3.71008 0.790039C4.03009 1.36011 4.34009 1.94995 4.6701 2.51001C4.83008 2.77002 5.13013 3.09009 5.13013 3.3999C5.13013 4.01001 3.31012 4.90991 3.31012 5.44995C3.31012 5.71997 3.56012 6.07007 3.70013 6.31006C4.71014 8.13989 5.98016 9.3999 7.81012 10.4199C8.05011 10.5601 8.40015 10.8101 8.6701 10.8101C9.21008 10.8101 10.1101 8.98999 10.7201 8.98999C11.0301 8.98999 11.3501 9.29004 11.6101 9.44995C12.1701 9.78003 12.7501 10.0901 13.3301 10.4099C13.5301 10.51 14.0201 10.73 14.0901 10.9399C14.1201 11.01 14.1201 11.0801 14.1201 11.1499C14.13 11.53 13.97 12.23 13.82 12.5601Z" fill-rule="nonzero" fill="#FFFFFF"/>
</svg>
