<svg width="11.570007" height="16.709961" viewBox="0 0 11.57 16.71" fill="none" xmlns="http://www.w3.org/2000/svg" xmlns:xlink="http://www.w3.org/1999/xlink">
	<desc>
			Created with Pixso.
	</desc>
	<defs/>
	<path id="Path 91" d="M10.92 11.5701L6.61005 11.5701L6.10004 16.4199C6.08002 16.5801 5.95001 16.71 5.79004 16.71C5.63007 16.71 5.49005 16.6001 5.46002 16.4399L4.70001 11.5701L0.640015 11.5701C0.290039 11.5701 0 11.28 0 10.9299C0 9.28003 1.25 7.71997 2.57001 7.71997L2.57001 2.58008C1.87 2.58008 1.28003 2 1.28003 1.29004C1.28003 0.580078 1.86005 0 2.57001 0L9 0C9.70001 0 10.29 0.580078 10.29 1.29004C10.29 2 9.70996 2.58008 9 2.58008L9 7.71997C10.33 7.71997 11.57 9.29004 11.57 10.9299C11.5601 11.28 11.27 11.5701 10.92 11.5701ZM4.81006 2.88989C4.81006 2.70996 4.67004 2.57007 4.49005 2.57007C4.31006 2.57007 4.17004 2.70996 4.17004 2.88989L4.17004 7.38989C4.17004 7.57007 4.31006 7.70996 4.49005 7.70996C4.67004 7.70996 4.81006 7.57007 4.81006 7.38989L4.81006 2.88989Z" fill-rule="nonzero" fill="#FFFFFF"/>
</svg>
