<svg width="18.023926" height="19.999756" viewBox="0 0 18.0239 19.9998" fill="none" xmlns="http://www.w3.org/2000/svg" xmlns:xlink="http://www.w3.org/1999/xlink">
	<desc>
			Created with Pixso.
	</desc>
	<defs/>
	<path id="Path 1127" d="M8.02393 6.99585L8.02393 0L10 0L10 6.99585C10 8.06396 9.6394 8.9718 8.91846 9.74622C8.19751 10.5205 7.30298 10.921 6.24829 10.9878L6.24829 19.9998L3.75159 19.9998L3.75159 10.9878C2.68359 10.921 1.80237 10.5072 1.08142 9.74622C0.360474 8.98523 0 8.06396 0 6.99585L0 0L2.01599 0L2.01599 6.99585L3.99194 6.99585L3.99194 0L6.00793 0L6.00793 6.99585L8.02393 6.99585ZM13.0039 3.99194C13.0039 3.05737 13.5112 2.14954 14.526 1.29504C15.5406 0.440552 16.7156 0 18.0239 0L18.0239 19.9998L15.5406 19.9998L15.5406 12.0159L13.0039 12.0159L13.0039 3.99194Z" fill-rule="nonzero" fill="#1F7B76"/>
</svg>
