<svg preserveAspectRatio="xMidYMid slice" xmlns="http://www.w3.org/2000/svg" width="34px" height="34px" viewBox="0 0 18.024 18.436">
  <path id="cars" d="M15.955,1.138l2.069,6.919V17.3a1.207,1.207,0,0,1-.28.815.9.9,0,0,1-.708.323H16.008a.9.9,0,0,1-.708-.323,1.207,1.207,0,0,1-.28-.815V16.114H3V17.3a1.207,1.207,0,0,1-.28.815.9.9,0,0,1-.708.323H.988a.9.9,0,0,1-.708-.323A1.207,1.207,0,0,1,0,17.3V8.057L2.069,1.138A1.361,1.361,0,0,1,3.525,0H14.513A1.356,1.356,0,0,1,15.955,1.138ZM2.016,6.919H16.008l-1.5-5.2H3.525Zm.454,5.213a1.35,1.35,0,0,0,2.109,0,1.895,1.895,0,0,0,0-2.429,1.35,1.35,0,0,0-2.109,0,1.821,1.821,0,0,0-.454,1.215A1.757,1.757,0,0,0,2.47,12.132Zm10.975,0a1.35,1.35,0,0,0,2.109,0,1.895,1.895,0,0,0,0-2.429,1.35,1.35,0,0,0-2.109,0,1.895,1.895,0,0,0,0,2.429Z" fill="#1f7b76"/>
</svg>
