<svg preserveAspectRatio="xMidYMid slice" xmlns="http://www.w3.org/2000/svg" width="23px" height="34px" viewBox="0 0 11.57 16.71">
  <path id="pin" d="M533.5,70.62h-4.31l-.51,4.85a.323.323,0,0,1-.31.29h-.01a.322.322,0,0,1-.32-.27l-.76-4.87h-4.06a.645.645,0,0,1-.64-.64c0-1.65,1.25-3.21,2.57-3.21V61.63a1.29,1.29,0,0,1,0-2.58h6.43a1.29,1.29,0,0,1,0,2.58v5.14c1.33,0,2.57,1.57,2.57,3.21A.66.66,0,0,1,533.5,70.62Zm-6.11-8.68a.32.32,0,0,0-.64,0v4.5a.32.32,0,0,0,.64,0Z" transform="translate(-522.58 -59.05)" fill="#fff"/>
</svg>
