<svg preserveAspectRatio="xMidYMid slice" id="envelope2" xmlns="http://www.w3.org/2000/svg" width="68px" height="53px" viewBox="0 0 32.654 25.662">
  <path id="Path_65" data-name="Path 65" d="M32.654,22.746a2.928,2.928,0,0,1-2.916,2.916H2.916A2.928,2.928,0,0,1,0,22.746V2.916A2.928,2.928,0,0,1,2.916,0H29.738a2.928,2.928,0,0,1,2.916,2.916v19.83ZM29.738,2.335H2.916a.6.6,0,0,0-.58.58A6.58,6.58,0,0,0,5.013,8.09q3.66,2.874,7.307,5.776c.965.783,2.713,2.461,3.993,2.461h.042c1.273,0,3.028-1.678,3.993-2.461,2.426-1.93,4.867-3.867,7.307-5.776,1.182-.93,2.678-2.951,2.678-4.5C30.326,3.133,30.43,2.335,29.738,2.335Zm.587,6.412a10.237,10.237,0,0,1-1.259,1.2c-2.608,2.007-5.23,4.049-7.761,6.16-1.37,1.147-3.063,2.552-4.958,2.552h-.042c-1.895,0-3.587-1.405-4.958-2.552C8.817,14,6.188,11.957,3.587,9.95a9.741,9.741,0,0,1-1.259-1.2v14a.6.6,0,0,0,.58.58H29.731a.6.6,0,0,0,.58-.58v-14Z" fill="#dedede"/>
</svg>
