<svg preserveAspectRatio="xMidYMid slice" xmlns="http://www.w3.org/2000/svg" width="34px" height="26px" viewBox="0 0 18 14.14">
  <path id="envelope" d="M17.99,12.53a1.615,1.615,0,0,1-1.61,1.61H1.61A1.615,1.615,0,0,1,0,12.53V1.61A1.609,1.609,0,0,1,1.61,0H16.39A1.615,1.615,0,0,1,18,1.61V12.53ZM16.39,1.29H1.61a.329.329,0,0,0-.32.32A3.606,3.606,0,0,0,2.77,4.46C4.12,5.51,5.46,6.58,6.8,7.64,7.32,8.07,8.28,9,8.99,9h.02c.7,0,1.67-.92,2.2-1.36,1.34-1.06,2.68-2.13,4.03-3.18a3.933,3.933,0,0,0,1.48-2.48C16.71,1.73,16.77,1.29,16.39,1.29Zm.32,3.53a5.384,5.384,0,0,1-.69.66c-1.44,1.1-2.88,2.23-4.28,3.39a4.672,4.672,0,0,1-2.73,1.41H8.99A4.616,4.616,0,0,1,6.26,8.87C4.86,7.7,3.42,6.58,1.98,5.48a5.384,5.384,0,0,1-.69-.66v7.71a.329.329,0,0,0,.32.32H16.39a.329.329,0,0,0,.32-.32Z" fill="#fff"/>
</svg>
