<svg preserveAspectRatio="xMidYMid slice" xmlns="http://www.w3.org/2000/svg" width="48px" height="68px" viewBox="0 0 71.621 99.5">
  <g id="mealPreparation" transform="translate(-11.5 -3.54)">
    <g id="Group_44" data-name="Group 44" transform="translate(11.5 3.54)">
      <path id="Path_1090" data-name="Path 1090" d="M40.316,66.924A27.141,27.141,0,0,1,13.257,40.2l-1.747.021A28.809,28.809,0,0,0,65.535,53.791l-1.528-.844A27.056,27.056,0,0,1,40.316,66.924Z" transform="translate(-11.493 23.842)" fill="#1f7b76"/>
      <path id="Path_1091" data-name="Path 1091" d="M19.4,46.9,18,47.948a22.431,22.431,0,0,0,2.528,2.837l1.2-1.273A20.166,20.166,0,0,1,19.4,46.9Z" transform="translate(-6.645 28.843)" fill="#1f7b76"/>
      <path id="Path_1092" data-name="Path 1092" d="M23.415,49.016,21.878,51.13a.872.872,0,0,0,.288,1.28,21.9,21.9,0,0,0,21.064,0,.876.876,0,0,0,.292-1.277L42,49.019l-1.42,1.02.929,1.291a20.146,20.146,0,0,1-17.624,0l.938-1.289Z" transform="translate(-3.875 30.423)" fill="#1f7b76"/>
      <path id="Path_1093" data-name="Path 1093" d="M38.12,46.953a18.813,18.813,0,0,1-2.252,2.519l1.195,1.273a20.6,20.6,0,0,0,2.463-2.755Z" transform="translate(6.699 28.882)" fill="#1f7b76"/>
      <path id="Path_1094" data-name="Path 1094" d="M40.316,58.909A27.057,27.057,0,0,1,13.257,32.224l-1.747.023a28.825,28.825,0,0,0,51.324,17.6l-1.364-1.09A27.031,27.031,0,0,1,40.316,58.909Z" transform="translate(-11.493 17.882)" fill="#1f7b76"/>
      <path id="Path_1095" data-name="Path 1095" d="M19.411,38.926l-1.389,1.06a22.514,22.514,0,0,0,2.489,2.777l1.2-1.273A20.551,20.551,0,0,1,19.411,38.926Z" transform="translate(-6.629 22.887)" fill="#1f7b76"/>
      <path id="Path_1096" data-name="Path 1096" d="M23.415,41.016,21.878,43.13c-1.473,2.016,7.066,3.979,10.82,3.979a21.956,21.956,0,0,0,10.532-2.7.872.872,0,0,0,.288-1.28l-1.537-2.114-1.413,1.027.938,1.289a20.135,20.135,0,0,1-17.619,0l.938-1.289Z" transform="translate(-3.875 24.448)" fill="#1f7b76"/>
      <path id="Path_1097" data-name="Path 1097" d="M40.323,7.5A28.823,28.823,0,1,0,54.736,61.289l-.877-1.511a27.07,27.07,0,1,1,2.626-45.2l1.041-1.4A28.677,28.677,0,0,0,40.323,7.5Z" transform="translate(-11.5 -0.583)" fill="#1f7b76"/>
      <path id="Path_1098" data-name="Path 1098" d="M15.88,21.961a21.759,21.759,0,0,0,6.512,20.028.873.873,0,0,0,1.3-.122L33.8,27.953a.875.875,0,0,0-.437-1.345L17.01,21.288A.875.875,0,0,0,15.88,21.961Zm1.558,1.3L31.676,27.9l-8.8,12.12A19.983,19.983,0,0,1,17.438,23.266Z" transform="translate(-8.511 9.683)" fill="#1f7b76"/>
      <path id="Path_1099" data-name="Path 1099" d="M17.243,25.173l16.351,5.319a.873.873,0,0,0,1.144-.83V12.474a.875.875,0,0,0-.98-.866A21.64,21.64,0,0,0,16.721,23.973.875.875,0,0,0,17.243,25.173ZM32.991,13.485V28.459L18.749,23.827A20.2,20.2,0,0,1,32.991,13.485Z" transform="translate(-7.662 2.48)" fill="#1f7b76"/>
      <path id="Path_1100" data-name="Path 1100" d="M22.163,41.6a21.892,21.892,0,0,0,21.072,0,.872.872,0,0,0,.285-1.279L33.405,26.4a.905.905,0,0,0-1.413,0L21.878,40.318A.872.872,0,0,0,22.163,41.6ZM32.7,28.4l8.811,12.12a20.464,20.464,0,0,1-17.622,0Z" transform="translate(-3.875 13.282)" fill="#1f7b76"/>
      <path id="Path_1101" data-name="Path 1101" d="M41.046,18.662l1.2-1.27a21.624,21.624,0,0,0-12.266-5.787.874.874,0,0,0-.982.868V29.662a.875.875,0,0,0,1.142.831L41.5,26.808l-.54-1.661-10.21,3.314V13.487A19.857,19.857,0,0,1,41.046,18.662Z" transform="translate(1.57 2.479)" fill="#1f7b76"/>
      <path id="Path_1102" data-name="Path 1102" d="M41.24,39.4,32.215,26.957,40.8,24.165l-.54-1.661-9.73,3.162a.874.874,0,0,0-.437,1.343l9.73,13.416Z" transform="translate(2.264 10.623)" fill="#1f7b76"/>
      <path id="Path_1103" data-name="Path 1103" d="M37.5,65.483a2.623,2.623,0,0,0,2.62,2.62h7.861v30.57a4.372,4.372,0,0,0,4.367,4.367h6.987A4.372,4.372,0,0,0,63.7,98.673V6.164a2.64,2.64,0,0,0-2.868-2.615A25.434,25.434,0,0,0,37.5,28.8ZM61.956,94.306H49.728V68.1H61.956Zm0,4.367a2.623,2.623,0,0,1-2.62,2.62H52.348a2.623,2.623,0,0,1-2.62-2.62v-2.62H61.956ZM39.247,28.8A23.68,23.68,0,0,1,60.972,5.29a.891.891,0,0,1,.983.873V66.356H40.12a.875.875,0,0,1-.873-.873Z" transform="translate(7.918 -3.54)" fill="#1f7b76"/>
      <path id="Path_1104" data-name="Path 1104" d="M49.12,46.741a2.62,2.62,0,1,0-2.62-2.62A2.623,2.623,0,0,0,49.12,46.741Zm0-3.494a.873.873,0,1,1-.873.873A.875.875,0,0,1,49.12,43.247Z" transform="translate(14.64 24.81)" fill="#1f7b76"/>
      <path id="Path_1105" data-name="Path 1105" d="M49.12,50.741a2.62,2.62,0,1,0-2.62-2.62A2.623,2.623,0,0,0,49.12,50.741Zm0-3.494a.873.873,0,1,1-.873.873A.875.875,0,0,1,49.12,47.247Z" transform="translate(14.64 27.797)" fill="#1f7b76"/>
      <path id="Path_1106" data-name="Path 1106" d="M49.12,54.741a2.62,2.62,0,1,0-2.62-2.62A2.623,2.623,0,0,0,49.12,54.741Zm0-3.494a.873.873,0,1,1-.873.873A.875.875,0,0,1,49.12,51.247Z" transform="translate(14.64 30.785)" fill="#1f7b76"/>
    </g>
  </g>
</svg>
